<svg xmlns="http://www.w3.org/2000/svg" xmlns:xlink="http://www.w3.org/1999/xlink" width="1080" zoomAndPan="magnify" viewBox="0 0 810 809.999993" height="1080" preserveAspectRatio="xMidYMid meet" version="1.0"><defs><clipPath id="9551b56daf"><path d="M 671.386719 644.007812 L 683.9375 644.007812 L 683.9375 663.417969 L 671.386719 663.417969 Z M 671.386719 644.007812 " clip-rule="nonzero"/></clipPath><clipPath id="6b74fb19c5"><path d="M 677.660156 644.007812 C 681.128906 644.007812 683.9375 646.816406 683.9375 650.28125 L 683.9375 657.125 C 683.9375 660.59375 681.128906 663.402344 677.660156 663.402344 C 674.195312 663.402344 671.386719 660.59375 671.386719 657.125 L 671.386719 650.28125 C 671.386719 646.816406 674.195312 644.007812 677.660156 644.007812 Z M 677.660156 644.007812 " clip-rule="nonzero"/></clipPath><clipPath id="4893e06a77"><path d="M 0 388 L 244 388 L 244 711.957031 L 0 711.957031 Z M 0 388 " clip-rule="nonzero"/></clipPath><clipPath id="d61b0b6c60"><path d="M 162 131 L 381 131 L 381 711.957031 L 162 711.957031 Z M 162 131 " clip-rule="nonzero"/></clipPath><clipPath id="83fd9bf2fa"><path d="M 251.144531 514 L 448.828125 514 L 448.828125 711.800781 L 251.144531 711.800781 Z M 251.144531 514 " clip-rule="nonzero"/></clipPath><clipPath id="96fb00c973"><path d="M 612 514 L 809.996094 514 L 809.996094 711.800781 L 612 711.800781 Z M 612 514 " clip-rule="nonzero"/></clipPath></defs><g clip-path="url(#9551b56daf)"><g clip-path="url(#6b74fb19c5)"><path fill="#000000" d="M 671.386719 644.007812 L 683.9375 644.007812 L 683.9375 663.417969 L 671.386719 663.417969 Z M 671.386719 644.007812 " fill-opacity="1" fill-rule="nonzero"/></g></g><path fill="#100f0d" d="M 445.164062 226.683594 L 767.28125 226.683594 C 772.375 226.683594 776.871094 223.972656 779.304688 219.433594 C 781.609375 215.136719 781.40625 210.203125 778.769531 206.230469 C 769.476562 192.261719 753.925781 183.917969 737.179688 183.917969 C 732.320312 183.917969 727.589844 184.605469 723.132812 185.953125 C 719.46875 187.066406 715.578125 185.105469 714.289062 181.503906 C 707.605469 162.851562 689.789062 150.324219 669.949219 150.324219 C 661.640625 150.324219 653.414062 152.578125 646.164062 156.832031 C 644.128906 158.023438 641.648438 158.148438 639.515625 157.160156 C 637.375 156.175781 635.863281 154.210938 635.449219 151.894531 C 629.851562 120.289062 601.433594 97.863281 569.332031 99.707031 C 539.929688 101.351562 515.15625 123.691406 510.421875 152.824219 C 508.890625 162.191406 509.472656 171.597656 512.144531 180.777344 C 512.9375 183.472656 512.074219 186.382812 509.949219 188.214844 C 507.828125 190.050781 504.820312 190.480469 502.265625 189.320312 C 494.765625 185.890625 486.808594 184.152344 478.621094 184.152344 C 461.429688 184.152344 445.320312 191.796875 434.429688 205.109375 C 431.226562 209.027344 430.636719 214.15625 432.851562 218.824219 C 434.652344 222.621094 438.832031 226.683594 445.164062 226.683594 " fill-opacity="1" fill-rule="nonzero"/><g clip-path="url(#4893e06a77)"><path fill="#100f0d" d="M 196.71875 711.613281 L 241.828125 711.613281 C 242.578125 711.398438 243.007812 710.871094 243.210938 710.519531 C 243.476562 710.074219 243.828125 709.167969 243.234375 708.113281 L 167.636719 573.738281 C 164.683594 568.5 164.738281 562.265625 167.777344 557.070312 C 170.816406 551.875 176.226562 548.773438 182.246094 548.773438 L 209.09375 548.773438 C 210.289062 548.773438 210.902344 548.03125 211.160156 547.585938 C 211.421875 547.144531 211.765625 546.246094 211.179688 545.207031 L 123.855469 390.175781 C 123.257812 389.117188 122.292969 388.957031 121.769531 388.957031 C 121.246094 388.957031 120.277344 389.117188 119.683594 390.179688 L 32.617188 545.207031 C 32.03125 546.25 32.378906 547.144531 32.636719 547.589844 C 32.898438 548.03125 33.511719 548.773438 34.703125 548.773438 L 61.328125 548.773438 C 67.347656 548.773438 72.753906 551.871094 75.796875 557.0625 C 78.835938 562.25 78.890625 568.484375 75.945312 573.726562 L 0.582031 707.914062 C 0 708.953125 0.347656 709.851562 0.605469 710.296875 C 0.863281 710.738281 1.476562 711.480469 2.671875 711.480469 L 2.675781 711.480469 L 195.859375 711.671875 C 196.140625 711.636719 196.425781 711.613281 196.71875 711.613281 " fill-opacity="1" fill-rule="nonzero"/></g><g clip-path="url(#d61b0b6c60)"><path fill="#100f0d" d="M 236.804688 612.9375 C 236.804688 552.835938 283.902344 503.53125 343.148438 499.9375 L 322.710938 480.433594 C 320.589844 478.40625 319.910156 475.296875 321.003906 472.570312 C 322.09375 469.847656 324.738281 468.0625 327.671875 468.0625 L 377.921875 468.0625 C 379.117188 468.0625 379.730469 467.316406 379.992188 466.875 C 380.246094 466.433594 380.59375 465.535156 380.007812 464.496094 L 306.535156 334.050781 C 303.582031 328.808594 303.632812 322.574219 306.671875 317.375 C 309.707031 312.179688 315.117188 309.078125 321.140625 309.078125 L 347.550781 309.078125 C 348.710938 309.078125 349.328125 308.371094 349.589844 307.945312 C 349.847656 307.523438 350.210938 306.660156 349.695312 305.621094 L 263.816406 132.878906 C 263.246094 131.726562 262.230469 131.550781 261.675781 131.550781 C 261.121094 131.550781 260.101562 131.726562 259.527344 132.882812 L 173.902344 305.625 C 173.390625 306.660156 173.753906 307.527344 174.015625 307.949219 C 174.277344 308.371094 174.890625 309.078125 176.050781 309.078125 L 202.242188 309.078125 C 208.257812 309.078125 213.667969 312.175781 216.707031 317.367188 C 219.746094 322.554688 219.804688 328.789062 216.859375 334.03125 L 166.042969 423.6875 C 164.972656 425.578125 164.632812 425.703125 162.300781 429.105469 L 223.699219 538.160156 C 226.65625 543.40625 226.601562 549.636719 223.5625 554.832031 C 220.523438 560.03125 215.113281 563.132812 209.09375 563.132812 L 182.246094 563.132812 C 181.050781 563.132812 180.4375 563.875 180.179688 564.316406 C 179.917969 564.761719 179.574219 565.660156 180.160156 566.699219 L 255.757812 701.078125 C 257.605469 704.367188 258.277344 708.046875 257.769531 711.613281 L 294.59375 711.613281 C 260.128906 692.179688 236.804688 655.230469 236.804688 612.9375 " fill-opacity="1" fill-rule="nonzero"/></g><path fill="#100f0d" d="M 448.742188 605.757812 C 447.023438 581.976562 436.855469 560.5 421.226562 544.320312 L 363.582031 605.757812 L 448.742188 605.757812 " fill-opacity="1" fill-rule="nonzero"/><g clip-path="url(#83fd9bf2fa)"><path fill="#100f0d" d="M 347 620.121094 L 346.996094 620.121094 C 346.765625 620.121094 346.53125 620.105469 346.300781 620.085938 C 346.210938 620.074219 346.125 620.058594 346.035156 620.046875 C 345.894531 620.027344 345.757812 620.011719 345.617188 619.984375 C 345.515625 619.964844 345.417969 619.9375 345.316406 619.914062 C 345.191406 619.882812 345.070312 619.855469 344.949219 619.816406 C 344.84375 619.789062 344.75 619.753906 344.648438 619.71875 C 344.53125 619.675781 344.414062 619.636719 344.296875 619.589844 C 344.203125 619.550781 344.109375 619.507812 344.011719 619.464844 C 343.898438 619.410156 343.78125 619.359375 343.671875 619.300781 C 343.578125 619.25 343.492188 619.199219 343.402344 619.148438 C 343.292969 619.085938 343.1875 619.019531 343.082031 618.953125 C 342.988281 618.890625 342.898438 618.828125 342.8125 618.765625 C 342.714844 618.695312 342.621094 618.625 342.527344 618.550781 C 342.433594 618.476562 342.34375 618.402344 342.257812 618.324219 C 342.199219 618.273438 342.140625 618.230469 342.082031 618.175781 C 342.054688 618.148438 342.03125 618.121094 342.003906 618.09375 C 341.914062 618.007812 341.828125 617.914062 341.738281 617.820312 C 341.660156 617.738281 341.585938 617.65625 341.511719 617.570312 C 341.4375 617.480469 341.371094 617.390625 341.300781 617.296875 C 341.226562 617.199219 341.148438 617.105469 341.082031 617.007812 C 341.019531 616.917969 340.964844 616.824219 340.90625 616.734375 C 340.84375 616.628906 340.773438 616.523438 340.710938 616.414062 C 340.65625 616.316406 340.609375 616.214844 340.5625 616.113281 C 340.507812 616.007812 340.453125 615.902344 340.40625 615.792969 C 340.359375 615.683594 340.316406 615.566406 340.273438 615.449219 C 340.238281 615.347656 340.199219 615.246094 340.164062 615.144531 C 340.125 615.027344 340.09375 614.898438 340.058594 614.773438 C 340.035156 614.675781 340.003906 614.574219 339.980469 614.472656 C 339.957031 614.351562 339.9375 614.226562 339.917969 614.101562 C 339.898438 613.996094 339.878906 613.882812 339.867188 613.773438 C 339.855469 613.660156 339.847656 613.542969 339.839844 613.425781 C 339.832031 613.300781 339.820312 613.179688 339.820312 613.054688 C 339.820312 613.015625 339.8125 612.976562 339.8125 612.9375 C 339.8125 612.867188 339.824219 612.792969 339.824219 612.71875 C 339.828125 612.59375 339.835938 612.46875 339.84375 612.34375 C 339.855469 612.226562 339.867188 612.113281 339.882812 611.996094 C 339.898438 611.878906 339.914062 611.765625 339.9375 611.652344 C 339.957031 611.53125 339.984375 611.414062 340.011719 611.296875 C 340.035156 611.1875 340.0625 611.078125 340.09375 610.96875 C 340.128906 610.855469 340.164062 610.738281 340.203125 610.625 C 340.238281 610.515625 340.28125 610.410156 340.320312 610.304688 C 340.367188 610.195312 340.414062 610.085938 340.460938 609.976562 C 340.507812 609.871094 340.554688 609.765625 340.609375 609.664062 C 340.667969 609.558594 340.722656 609.453125 340.78125 609.351562 C 340.839844 609.253906 340.898438 609.152344 340.964844 609.054688 C 341.03125 608.953125 341.097656 608.851562 341.167969 608.753906 C 341.234375 608.664062 341.300781 608.574219 341.371094 608.484375 C 341.449219 608.382812 341.535156 608.289062 341.621094 608.191406 C 341.667969 608.136719 341.707031 608.078125 341.757812 608.027344 L 410.527344 534.734375 C 393.796875 521.792969 372.828125 514.074219 350.085938 514.074219 C 295.542969 514.074219 251.171875 558.425781 251.171875 612.9375 C 251.171875 665.441406 292.332031 708.507812 344.089844 711.613281 L 349.976562 711.613281 C 350.503906 711.613281 351.011719 711.675781 351.511719 711.785156 C 402.992188 711.054688 445.082031 670.824219 448.742188 620.121094 L 347 620.121094 " fill-opacity="1" fill-rule="nonzero"/></g><g clip-path="url(#96fb00c973)"><path fill="#100f0d" d="M 711.082031 514.074219 C 700.246094 514.074219 689.820312 515.832031 680.050781 519.0625 L 717.722656 610.199219 C 719.238281 613.863281 717.492188 618.058594 713.824219 619.574219 C 712.929688 619.945312 712 620.121094 711.085938 620.121094 C 708.265625 620.121094 705.585938 618.449219 704.4375 615.679688 L 666.785156 524.5625 C 634.425781 540.832031 612.167969 574.335938 612.167969 612.9375 C 612.167969 667.453125 656.539062 711.800781 711.082031 711.800781 C 765.625 711.800781 809.996094 667.453125 809.996094 612.9375 C 809.996094 558.425781 765.625 514.074219 711.082031 514.074219 " fill-opacity="1" fill-rule="nonzero"/></g><path fill="#100f0d" d="M 539.171875 600.851562 L 488.140625 477.386719 L 629.609375 434.628906 L 640.175781 460.191406 Z M 625.601562 387.3125 C 624.488281 384.628906 621.867188 382.875 618.960938 382.875 L 557.449219 382.875 C 556.96875 382.875 556.5 382.691406 556.253906 382.40625 C 552.875 378.492188 551.917969 374.371094 553.554688 370.800781 C 554.9375 367.769531 557.988281 365.8125 561.320312 365.8125 C 565.289062 365.8125 568.503906 362.597656 568.503906 358.632812 C 568.503906 354.667969 565.289062 351.453125 561.320312 351.453125 C 552.386719 351.453125 544.207031 356.699219 540.488281 364.820312 C 536.496094 373.539062 538.320312 383.621094 545.375 391.789062 C 548.367188 395.25 552.765625 397.234375 557.449219 397.234375 L 614.152344 397.234375 L 624.101562 421.292969 L 482.628906 464.050781 L 455.011719 397.234375 L 481.808594 397.234375 C 485.777344 397.234375 488.996094 394.019531 488.996094 390.054688 C 488.996094 386.089844 485.777344 382.875 481.808594 382.875 L 444.367188 382.875 C 444.339844 382.875 444.308594 382.875 444.28125 382.875 L 414.246094 382.875 C 410.28125 382.875 407.0625 386.089844 407.0625 390.054688 C 407.0625 394.019531 410.28125 397.234375 414.246094 397.234375 L 439.46875 397.234375 L 470.066406 471.269531 L 420.394531 524.222656 C 424.148438 527.203125 427.707031 530.417969 431.0625 533.84375 L 476.09375 485.84375 L 525.65625 605.757812 L 463.136719 605.757812 C 463.285156 608.132812 463.375 610.527344 463.375 612.9375 C 463.375 615.351562 463.285156 617.742188 463.136719 620.121094 L 536.394531 620.121094 C 536.40625 620.121094 536.414062 620.121094 536.414062 620.121094 L 539.339844 620.121094 C 539.605469 620.121094 539.871094 620.101562 540.136719 620.074219 C 540.191406 620.066406 540.242188 620.054688 540.300781 620.046875 C 540.511719 620.019531 540.71875 619.984375 540.921875 619.9375 C 540.992188 619.921875 541.058594 619.902344 541.125 619.886719 C 541.316406 619.835938 541.5 619.78125 541.683594 619.71875 C 541.757812 619.691406 541.832031 619.664062 541.90625 619.636719 C 542.082031 619.570312 542.246094 619.496094 542.414062 619.417969 C 542.492188 619.382812 542.570312 619.347656 542.644531 619.308594 C 542.816406 619.21875 542.980469 619.121094 543.140625 619.019531 C 543.203125 618.980469 543.265625 618.945312 543.328125 618.90625 C 543.539062 618.765625 543.742188 618.613281 543.9375 618.453125 C 544.003906 618.394531 544.066406 618.335938 544.132812 618.273438 C 544.265625 618.15625 544.394531 618.03125 544.519531 617.902344 C 544.585938 617.835938 544.652344 617.761719 544.714844 617.6875 C 544.839844 617.546875 544.957031 617.402344 545.074219 617.25 C 545.105469 617.207031 545.140625 617.167969 545.171875 617.125 L 646.636719 475.824219 L 662.582031 514.511719 C 666.859375 512.410156 671.289062 510.5625 675.851562 509.007812 L 625.601562 387.3125 " fill-opacity="1" fill-rule="nonzero"/></svg>