<svg xmlns="http://www.w3.org/2000/svg" xmlns:xlink="http://www.w3.org/1999/xlink" width="1080" zoomAndPan="magnify" viewBox="0 0 810 809.999993" height="1080" preserveAspectRatio="xMidYMid meet" version="1.0"><defs><clipPath id="7f6894448e"><path d="M 29.171875 32 L 780.671875 32 L 780.671875 778.238281 L 29.171875 778.238281 Z M 29.171875 32 " clip-rule="nonzero"/></clipPath><clipPath id="5e4a539f78"><path d="M 575.554688 498 L 593.554688 498 L 593.554688 515.980469 L 575.554688 515.980469 Z M 575.554688 498 " clip-rule="nonzero"/></clipPath><clipPath id="f5692cf640"><path d="M 575.554688 497.980469 L 593.554688 497.980469 L 593.554688 515.980469 L 575.554688 515.980469 Z M 575.554688 497.980469 " clip-rule="nonzero"/></clipPath></defs><path fill="#000000" d="M 149.410156 116.390625 C 149.410156 96.488281 133.226562 80.296875 113.339844 80.296875 C 93.449219 80.296875 77.265625 96.488281 77.265625 116.390625 L 77.265625 152.480469 L 149.410156 152.480469 Z M 125.363281 128.417969 L 101.316406 128.417969 L 101.316406 116.390625 C 101.316406 109.757812 106.710938 104.359375 113.339844 104.359375 C 119.96875 104.359375 125.363281 109.757812 125.363281 116.390625 Z M 125.363281 128.417969 " fill-opacity="1" fill-rule="nonzero"/><path fill="#000000" d="M 245.601562 116.390625 C 245.601562 96.488281 229.421875 80.296875 209.53125 80.296875 C 189.640625 80.296875 173.457031 96.488281 173.457031 116.390625 L 173.457031 152.480469 L 245.601562 152.480469 Z M 221.554688 128.417969 L 197.507812 128.417969 L 197.507812 116.390625 C 197.507812 109.757812 202.902344 104.359375 209.53125 104.359375 C 216.160156 104.359375 221.554688 109.757812 221.554688 116.390625 Z M 221.554688 128.417969 " fill-opacity="1" fill-rule="nonzero"/><path fill="#000000" d="M 220.324219 230.3125 L 220.9375 228.464844 L 198.125 220.859375 L 197.507812 222.707031 C 192.324219 238.265625 177.828125 248.722656 161.433594 248.722656 C 145.042969 248.722656 130.546875 238.265625 125.363281 222.710938 L 124.746094 220.863281 L 101.929688 228.464844 L 102.550781 230.320312 C 111.011719 255.71875 134.675781 272.78125 161.433594 272.78125 C 188.191406 272.78125 211.859375 255.71875 220.324219 230.3125 Z M 220.324219 230.3125 " fill-opacity="1" fill-rule="nonzero"/><path fill="#000000" d="M 149.410156 176.539062 L 173.457031 176.539062 L 173.457031 224.660156 L 149.410156 224.660156 Z M 149.410156 176.539062 " fill-opacity="1" fill-rule="nonzero"/><path fill="#000000" d="M 594.300781 152.480469 C 614.1875 152.480469 630.371094 136.289062 630.371094 116.390625 C 630.371094 96.488281 614.1875 80.296875 594.300781 80.296875 C 574.410156 80.296875 558.226562 96.488281 558.226562 116.390625 C 558.226562 136.289062 574.410156 152.480469 594.300781 152.480469 Z M 594.300781 104.359375 C 600.929688 104.359375 606.324219 109.757812 606.324219 116.390625 C 606.324219 123.023438 600.929688 128.417969 594.300781 128.417969 C 587.667969 128.417969 582.273438 123.023438 582.273438 116.390625 C 582.273438 109.757812 587.667969 104.359375 594.300781 104.359375 Z M 594.300781 104.359375 " fill-opacity="1" fill-rule="nonzero"/><g clip-path="url(#7f6894448e)"><path fill="#000000" d="M 774.660156 532.464844 C 774.660156 508.679688 755.316406 489.324219 731.542969 489.324219 C 725.121094 489.324219 719.082031 491.828125 714.539062 496.371094 L 688.261719 522.664062 L 665.929688 504.789062 C 658.0625 498.492188 648.925781 493.988281 639.246094 491.519531 C 649.308594 463.910156 654.417969 434.921875 654.417969 405.113281 C 654.417969 381.214844 651.09375 357.664062 644.539062 334.953125 C 652.363281 331.699219 659.90625 327.691406 667.054688 322.925781 L 686.796875 309.757812 L 613.546875 251.128906 L 780.636719 117.386719 L 767.011719 103.753906 C 720.878906 57.597656 659.539062 32.179688 594.300781 32.179688 C 529.058594 32.179688 467.71875 57.597656 421.585938 103.753906 L 407.964844 117.386719 L 460.417969 159.371094 C 441.375 154.835938 421.75 152.480469 401.914062 152.480469 C 364.367188 152.480469 327.347656 160.875 293.699219 176.84375 L 293.699219 56.238281 C 293.699219 42.972656 282.910156 32.179688 269.652344 32.179688 L 53.21875 32.179688 C 39.960938 32.179688 29.171875 42.972656 29.171875 56.238281 L 29.171875 206.632812 C 29.171875 258.871094 60 306.339844 107.71875 327.558594 L 133.539062 339.042969 C 140.921875 342.324219 148.683594 344.234375 156.671875 344.78125 C 151.855469 364.4375 149.410156 384.660156 149.410156 405.113281 C 149.410156 428.679688 152.640625 451.925781 159.019531 474.359375 C 158.148438 475.035156 157.296875 475.738281 156.472656 476.488281 L 38.5625 583.734375 C 32.59375 589.164062 29.171875 596.90625 29.171875 604.976562 C 29.171875 619.222656 39.605469 631.042969 53.21875 633.277344 L 53.21875 705.871094 C 39.960938 705.871094 29.171875 716.664062 29.171875 729.929688 L 29.171875 753.992188 C 29.171875 767.257812 39.960938 778.050781 53.21875 778.050781 L 317.746094 778.050781 C 331.007812 778.050781 341.792969 767.257812 341.792969 753.992188 L 341.792969 729.929688 C 341.792969 716.664062 331.007812 705.871094 317.746094 705.871094 L 317.746094 643.363281 C 344.683594 652.910156 372.914062 657.75 401.914062 657.75 C 431.703125 657.75 460.675781 652.636719 488.273438 642.570312 C 490.742188 652.253906 495.242188 661.394531 501.535156 669.265625 L 550.773438 730.847656 C 574.761719 760.84375 610.542969 778.050781 648.941406 778.050781 C 718.261719 778.050781 774.660156 721.625 774.660156 652.269531 C 774.660156 622.894531 764.121094 594.140625 745.433594 571.671875 L 767.617188 549.476562 C 772.15625 544.933594 774.660156 538.890625 774.660156 532.464844 Z M 630.371094 405.113281 C 630.371094 434.273438 624.976562 462.558594 614.351562 489.324219 L 522.550781 489.324219 C 530.203125 461.929688 534.179688 433.480469 534.179688 405.113281 C 534.179688 377.859375 530.5 350.53125 523.429688 324.132812 C 544.617188 337.753906 569.066406 344.964844 594.300781 344.964844 C 603.535156 344.964844 612.664062 343.980469 621.566406 342.09375 C 627.40625 362.496094 630.371094 383.640625 630.371094 405.113281 Z M 300.46875 540.441406 C 305.136719 550.160156 310.351562 559.632812 316.019531 568.832031 L 255.0625 513.386719 L 289.054688 513.386719 C 292.441406 522.582031 296.230469 531.621094 300.46875 540.441406 Z M 401.976562 630.265625 L 401.914062 630.3125 L 401.855469 630.265625 C 362.582031 598.832031 332.898438 558.558594 314.652344 513.386719 L 489.175781 513.386719 C 470.929688 558.558594 441.25 598.832031 401.976562 630.265625 Z M 366.167969 630.917969 C 355.546875 629.253906 345.09375 626.828125 334.832031 623.671875 C 339.160156 618.644531 341.792969 612.117188 341.792969 604.976562 C 341.792969 604.886719 341.78125 604.800781 341.78125 604.710938 C 349.410156 613.902344 357.550781 622.664062 366.167969 630.917969 Z M 306.164062 489.324219 C 297.992188 462.402344 293.699219 434.089844 293.699219 405.113281 C 293.699219 376.140625 297.992188 347.828125 306.164062 320.902344 L 497.664062 320.902344 C 505.839844 347.828125 510.128906 376.140625 510.128906 405.113281 C 510.128906 434.089844 505.839844 462.402344 497.664062 489.324219 Z M 401.855469 179.964844 L 401.914062 179.914062 L 401.976562 179.964844 C 441.25 211.398438 470.929688 251.671875 489.179688 296.84375 L 314.652344 296.84375 C 332.898438 251.671875 362.582031 211.398438 401.855469 179.964844 Z M 645.761719 307.726562 C 630.019531 316.371094 612.402344 320.902344 594.300781 320.902344 C 576.195312 320.902344 558.582031 316.371094 542.835938 307.726562 L 594.300781 266.535156 Z M 594.300781 235.722656 L 565.597656 212.75 C 563.222656 210.726562 560.8125 208.757812 558.371094 206.828125 C 569.867188 202.734375 582.035156 200.601562 594.300781 200.601562 C 606.605469 200.601562 618.8125 202.75 630.34375 206.871094 Z M 594.300781 56.238281 C 650.570312 56.238281 703.625 77.214844 744.53125 115.472656 L 651.695312 189.78125 C 633.859375 181.101562 614.183594 176.539062 594.300781 176.539062 C 574.414062 176.539062 554.738281 181.101562 536.902344 189.78125 L 444.066406 115.472656 C 484.972656 77.214844 538.027344 56.238281 594.300781 56.238281 Z M 575.050781 251.128906 L 517.9375 296.84375 L 514.773438 296.84375 C 511.386719 287.644531 507.597656 278.605469 503.363281 269.789062 C 487.183594 236.105469 464.742188 205.273438 437.726562 179.371094 C 474.257812 185.175781 508.96875 199.785156 538.714844 222.042969 Z M 293.699219 206.632812 L 293.699219 203.769531 C 316.269531 191.609375 340.78125 183.386719 366.097656 179.378906 C 339.085938 205.277344 316.644531 236.109375 300.46875 269.789062 C 296.230469 278.605469 292.441406 287.644531 289.054688 296.84375 L 258.171875 296.84375 C 280.558594 272.785156 293.699219 240.726562 293.699219 206.632812 Z M 117.484375 305.570312 C 78.445312 288.210938 53.21875 249.375 53.21875 206.632812 L 53.21875 56.238281 L 269.652344 56.238281 L 269.652344 206.632812 C 269.652344 249.375 244.425781 288.210938 205.386719 305.570312 L 179.5625 317.054688 C 173.816406 319.609375 167.71875 320.902344 161.433594 320.902344 C 155.148438 320.902344 149.050781 319.609375 143.304688 317.054688 Z M 173.457031 405.113281 C 173.457031 383.515625 176.488281 362.214844 182.402344 341.683594 C 184.742188 340.929688 187.054688 340.050781 189.328125 339.042969 L 215.152344 327.558594 C 219.632812 325.566406 223.964844 323.339844 228.136719 320.902344 L 281.277344 320.902344 C 273.625 348.300781 269.648438 376.746094 269.648438 405.113281 C 269.648438 433.480469 273.625 461.929688 281.277344 489.324219 L 228.605469 489.324219 L 214.492188 476.488281 C 206.535156 469.25 196.230469 465.265625 185.484375 465.265625 C 184.152344 465.265625 182.824219 465.328125 181.511719 465.449219 C 176.171875 445.878906 173.457031 425.636719 173.457031 405.113281 Z M 54.742188 601.535156 L 172.648438 494.292969 C 176.171875 491.089844 180.726562 489.324219 185.484375 489.324219 C 190.238281 489.324219 194.796875 491.089844 198.316406 494.292969 L 316.222656 601.535156 C 317.191406 602.414062 317.746094 603.671875 317.746094 604.976562 C 317.746094 607.542969 315.660156 609.628906 313.097656 609.628906 L 289.371094 609.628906 L 185.484375 515.132812 L 81.59375 609.628906 L 57.867188 609.628906 C 55.304688 609.628906 53.21875 607.542969 53.21875 604.976562 C 53.21875 603.671875 53.773438 602.414062 54.742188 601.535156 Z M 221.554688 705.871094 L 221.554688 633.6875 L 245.601562 633.6875 L 245.601562 705.871094 Z M 117.347656 609.628906 L 185.484375 547.648438 L 253.621094 609.628906 Z M 149.410156 633.6875 L 149.410156 705.871094 L 125.363281 705.871094 L 125.363281 633.6875 Z M 173.457031 633.6875 L 197.507812 633.6875 L 197.507812 705.871094 L 173.457031 705.871094 Z M 77.265625 633.6875 L 101.316406 633.6875 L 101.316406 705.871094 L 77.265625 705.871094 Z M 317.761719 753.992188 C 317.761719 753.992188 317.757812 753.992188 317.746094 753.992188 L 53.21875 753.992188 L 53.21875 729.929688 L 317.746094 729.929688 Z M 269.652344 705.871094 L 269.652344 633.6875 L 293.699219 633.6875 L 293.699219 705.871094 Z M 486.5 617.5 C 470.707031 623.808594 454.386719 628.296875 437.664062 630.917969 C 464.707031 605 487.171875 574.148438 503.363281 540.441406 C 507.597656 531.621094 511.386719 522.582031 514.773438 513.386719 L 568.773438 513.386719 C 563.640625 519.28125 559.433594 526.101562 556.402344 533.675781 C 551.683594 545.480469 542.210938 554.960938 530.410156 559.683594 C 505.886719 569.496094 489.273438 591.699219 486.5 617.5 Z M 750.609375 652.269531 C 750.609375 708.359375 705.003906 753.992188 648.941406 753.992188 C 617.886719 753.992188 588.949219 740.078125 569.550781 715.816406 L 520.3125 654.234375 C 513.746094 646.019531 510.128906 635.707031 510.128906 625.191406 C 510.128906 606.070312 521.597656 589.125 539.34375 582.023438 C 557.222656 574.867188 571.578125 560.5 578.730469 542.613281 C 585.832031 524.859375 602.765625 513.386719 621.878906 513.386719 C 632.386719 513.386719 642.699219 517.003906 650.90625 523.574219 L 671.152344 539.78125 L 637.414062 573.539062 C 633.507812 577.449219 631.125 582.464844 630.527344 587.882812 C 608.539062 594.140625 591.644531 612.539062 587.765625 635.832031 L 579.671875 684.414062 L 628.230469 676.316406 C 651.507812 672.4375 669.898438 655.535156 676.15625 633.53125 C 681.570312 632.9375 686.585938 630.550781 690.492188 626.644531 L 728.328125 588.789062 C 742.585938 606.699219 750.609375 629.242188 750.609375 652.269531 Z M 635.78125 611.445312 C 639.707031 618.503906 645.550781 624.347656 652.605469 628.273438 C 648.5 640.804688 637.761719 650.335938 624.277344 652.582031 L 608.925781 655.144531 L 611.488281 639.785156 C 613.734375 626.292969 623.261719 615.550781 635.78125 611.445312 Z M 673.488281 609.628906 C 662.972656 609.628906 654.417969 601.070312 654.417969 590.550781 L 731.542969 513.386719 C 742.058594 513.386719 750.609375 521.945312 750.609375 532.460938 Z M 673.488281 609.628906 " fill-opacity="1" fill-rule="nonzero"/></g><g clip-path="url(#5e4a539f78)"><path fill="#ff0000" d="M 593.339844 507.132812 C 593.242188 507.289062 593.078125 507.382812 592.917969 507.472656 C 592.984375 507.570312 592.984375 507.703125 592.953125 507.820312 C 592.921875 507.9375 592.867188 508.042969 592.835938 508.160156 C 592.804688 508.277344 592.8125 508.429688 592.878906 508.527344 C 592.789062 508.53125 592.710938 508.605469 592.671875 508.691406 C 592.636719 508.777344 592.628906 508.871094 592.621094 508.964844 C 592.613281 509.054688 592.601562 509.152344 592.554688 509.230469 C 592.6875 509.285156 592.824219 509.339844 592.921875 509.449219 C 592.949219 509.480469 592.972656 509.515625 592.984375 509.554688 C 593.019531 509.644531 593.003906 509.746094 592.96875 509.832031 C 592.929688 509.921875 592.871094 510 592.816406 510.074219 C 592.890625 510.148438 593.011719 510.230469 593.046875 510.332031 C 593.066406 510.394531 593.070312 510.464844 593.078125 510.53125 C 593.113281 510.765625 593.238281 510.988281 593.230469 511.226562 C 593.230469 511.25 593.210938 511.273438 593.191406 511.285156 C 593.167969 511.296875 593.144531 511.304688 593.125 511.316406 C 593.050781 511.351562 593.011719 511.4375 592.996094 511.519531 C 592.980469 511.601562 592.984375 511.683594 592.964844 511.765625 C 592.929688 511.933594 592.804688 512.066406 592.691406 512.199219 C 592.753906 512.273438 592.8125 512.347656 592.847656 512.441406 C 592.882812 512.53125 592.886719 512.636719 592.835938 512.71875 C 592.773438 512.816406 592.621094 512.867188 592.507812 512.894531 C 592.59375 512.976562 592.679688 513.066406 592.699219 513.183594 C 592.710938 513.265625 592.683594 513.347656 592.695312 513.425781 C 592.703125 513.496094 592.738281 513.558594 592.785156 513.613281 C 592.828125 513.667969 592.882812 513.710938 592.9375 513.753906 C 592.839844 513.902344 592.851562 514.113281 592.898438 514.285156 C 592.941406 514.457031 593.023438 514.617188 593.070312 514.789062 C 593.128906 515.011719 593.125 515.246094 593.058594 515.460938 C 592.765625 515.53125 592.421875 515.53125 592.136719 515.433594 C 592.003906 515.390625 591.878906 515.328125 591.742188 515.296875 C 591.605469 515.269531 591.441406 515.273438 591.332031 515.359375 C 591.28125 515.273438 591.203125 515.207031 591.109375 515.171875 C 591.007812 515.128906 590.890625 515.128906 590.777344 515.109375 C 590.664062 515.089844 590.542969 515.042969 590.476562 514.949219 C 590.453125 515.066406 590.394531 515.179688 590.316406 515.269531 C 590.289062 515.304688 590.257812 515.335938 590.214844 515.34375 C 590.179688 515.347656 590.148438 515.335938 590.121094 515.324219 C 590.003906 515.28125 589.890625 515.210938 589.792969 515.140625 C 589.730469 515.136719 589.679688 515.175781 589.636719 515.21875 C 589.59375 515.261719 589.558594 515.3125 589.507812 515.34375 C 589.378906 515.425781 589.207031 515.363281 589.0625 515.417969 C 588.945312 515.460938 588.847656 515.570312 588.785156 515.679688 C 588.746094 515.644531 588.691406 515.632812 588.636719 515.628906 C 588.582031 515.625 588.53125 515.625 588.476562 515.613281 C 588.398438 515.597656 588.332031 515.550781 588.253906 515.527344 C 588.148438 515.492188 588.027344 515.5 587.921875 515.464844 C 587.800781 515.425781 587.703125 515.332031 587.613281 515.242188 C 587.5 515.324219 587.449219 515.34375 587.316406 515.394531 C 587.261719 515.417969 587.207031 515.433594 587.152344 515.421875 C 587.105469 515.410156 587.066406 515.378906 587.035156 515.34375 C 586.9375 515.25 586.855469 515.121094 586.800781 514.996094 C 586.660156 515.070312 586.480469 515.015625 586.328125 515.0625 C 586.21875 515.097656 586.125 515.1875 586.085938 515.296875 C 586.007812 515.222656 585.886719 515.222656 585.78125 515.253906 C 585.679688 515.285156 585.585938 515.34375 585.484375 515.375 C 585.347656 515.417969 585.191406 515.410156 585.058594 515.347656 L 585.058594 515.320312 C 585.007812 515.511719 584.871094 515.679688 584.695312 515.765625 C 584.644531 515.789062 584.589844 515.808594 584.535156 515.796875 C 584.488281 515.792969 584.445312 515.765625 584.410156 515.738281 C 584.269531 515.640625 584.152344 515.511719 584.0625 515.367188 C 583.90625 515.390625 583.746094 515.417969 583.597656 515.355469 C 583.523438 515.324219 583.457031 515.269531 583.382812 515.242188 C 583.261719 515.195312 583.117188 515.226562 583.023438 515.3125 C 583.003906 515.21875 582.925781 515.144531 582.839844 515.105469 C 582.753906 515.066406 582.65625 515.054688 582.5625 515.046875 C 582.472656 515.035156 582.375 515.023438 582.289062 514.984375 C 582.273438 515.121094 582.21875 515.226562 582.128906 515.328125 C 582.089844 515.371094 582.046875 515.410156 581.992188 515.417969 C 581.957031 515.421875 581.917969 515.414062 581.886719 515.40625 C 581.757812 515.371094 581.640625 515.316406 581.535156 515.238281 C 581.363281 515.296875 581.261719 515.476562 581.085938 515.515625 C 581.003906 515.535156 580.914062 515.519531 580.832031 515.535156 C 580.765625 515.550781 580.707031 515.585938 580.644531 515.605469 C 580.53125 515.636719 580.402344 515.621094 580.300781 515.683594 C 580.25 515.5625 580.117188 515.460938 579.992188 515.425781 C 579.917969 515.40625 579.839844 515.402344 579.761719 515.386719 C 579.617188 515.355469 579.457031 515.246094 579.371094 515.125 C 579.304688 515.183594 579.292969 515.195312 579.214844 515.242188 C 579.140625 515.285156 579.046875 515.3125 578.960938 515.300781 C 578.882812 515.289062 578.808594 515.242188 578.757812 515.179688 C 578.703125 515.117188 578.664062 515.015625 578.652344 514.933594 C 578.585938 515.042969 578.460938 515.109375 578.335938 515.121094 C 578.25 515.128906 578.164062 515.117188 578.078125 515.132812 C 577.957031 515.152344 577.832031 515.253906 577.785156 515.367188 C 577.679688 515.289062 577.539062 515.277344 577.40625 515.296875 C 577.199219 515.324219 577.003906 515.414062 576.800781 515.46875 C 576.566406 515.53125 576.242188 515.535156 576.054688 515.460938 C 575.988281 515.246094 575.988281 515.011719 576.042969 514.789062 C 576.089844 514.621094 576.171875 514.457031 576.21875 514.285156 C 576.265625 514.117188 576.273438 513.902344 576.175781 513.757812 C 576.230469 513.710938 576.285156 513.667969 576.332031 513.613281 C 576.375 513.558594 576.410156 513.496094 576.421875 513.425781 C 576.429688 513.347656 576.40625 513.265625 576.417969 513.183594 C 576.433594 513.066406 576.523438 512.976562 576.605469 512.894531 C 576.492188 512.867188 576.34375 512.820312 576.28125 512.71875 C 576.230469 512.636719 576.234375 512.53125 576.265625 512.441406 C 576.300781 512.351562 576.363281 512.273438 576.421875 512.199219 C 576.3125 512.066406 576.183594 511.933594 576.148438 511.765625 C 576.132812 511.6875 576.136719 511.601562 576.121094 511.519531 C 576.105469 511.4375 576.066406 511.351562 575.992188 511.316406 C 575.96875 511.304688 575.945312 511.296875 575.925781 511.285156 C 575.902344 511.273438 575.886719 511.25 575.886719 511.226562 C 575.878906 510.988281 576.003906 510.765625 576.035156 510.53125 C 576.046875 510.464844 576.046875 510.394531 576.070312 510.332031 C 576.101562 510.230469 576.222656 510.148438 576.300781 510.074219 C 576.242188 510 576.183594 509.921875 576.148438 509.832031 C 576.109375 509.746094 576.097656 509.644531 576.128906 509.554688 C 576.144531 509.515625 576.167969 509.480469 576.195312 509.449219 C 576.289062 509.339844 576.425781 509.285156 576.558594 509.230469 L 576.5625 509.230469 C 576.515625 509.152344 576.5 509.054688 576.492188 508.964844 C 576.484375 508.871094 576.480469 508.777344 576.441406 508.691406 C 576.40625 508.605469 576.328125 508.53125 576.234375 508.527344 C 576.300781 508.429688 576.308594 508.277344 576.277344 508.160156 C 576.246094 508.046875 576.191406 507.9375 576.164062 507.820312 C 576.132812 507.703125 576.128906 507.574219 576.199219 507.472656 C 576.035156 507.382812 575.875 507.289062 575.777344 507.132812 C 575.742188 507.074219 575.714844 507.003906 575.726562 506.933594 C 575.738281 506.882812 575.769531 506.835938 575.800781 506.796875 C 575.851562 506.726562 575.914062 506.664062 575.980469 506.613281 C 576.027344 506.578125 576.074219 506.542969 576.109375 506.496094 C 576.148438 506.453125 576.167969 506.390625 576.148438 506.335938 C 576.136719 506.246094 576.140625 506.136719 576.171875 506.046875 C 576.203125 505.949219 576.273438 505.867188 576.304688 505.769531 C 576.335938 505.65625 576.3125 505.523438 576.234375 505.433594 C 576.289062 505.410156 576.34375 505.386719 576.382812 505.34375 C 576.417969 505.304688 576.4375 505.25 576.449219 505.199219 C 576.488281 505.058594 576.5 504.910156 576.511719 504.761719 C 576.515625 504.746094 576.515625 504.730469 576.507812 504.71875 C 576.5 504.707031 576.453125 504.695312 576.441406 504.707031 C 576.28125 504.664062 576.144531 504.523438 576.117188 504.359375 C 576.085938 504.191406 576.164062 504.015625 576.304688 503.921875 C 576.179688 503.84375 576.09375 503.710938 576.050781 503.570312 C 576.007812 503.433594 575.992188 503.289062 575.972656 503.148438 C 575.949219 503.003906 575.917969 502.859375 575.84375 502.738281 C 575.960938 502.652344 576.085938 502.566406 576.125 502.433594 C 576.152344 502.335938 576.144531 502.230469 576.167969 502.132812 C 576.199219 501.996094 576.289062 501.871094 576.410156 501.800781 C 576.351562 501.726562 576.292969 501.628906 576.261719 501.535156 C 576.234375 501.445312 576.234375 501.339844 576.28125 501.257812 C 576.34375 501.152344 576.484375 501.097656 576.605469 501.070312 L 576.609375 501.070312 C 576.550781 501.027344 576.550781 501.03125 576.511719 500.972656 C 576.457031 500.898438 576.4375 500.808594 576.421875 500.71875 C 576.410156 500.632812 576.402344 500.542969 576.378906 500.457031 C 576.378906 500.394531 576.347656 500.320312 576.296875 500.289062 C 576.261719 500.265625 576.21875 500.253906 576.203125 500.214844 C 576.191406 500.191406 576.195312 500.164062 576.210938 500.140625 C 576.222656 500.121094 576.246094 500.097656 576.269531 500.085938 C 576.261719 499.839844 576.164062 499.609375 576.097656 499.371094 C 576.019531 499.082031 575.996094 498.777344 576.03125 498.476562 C 576.214844 498.40625 576.570312 498.421875 576.804688 498.484375 C 577.007812 498.539062 577.199219 498.632812 577.410156 498.660156 C 577.539062 498.679688 577.679688 498.667969 577.785156 498.589844 C 577.835938 498.699219 577.960938 498.800781 578.078125 498.824219 C 578.164062 498.839844 578.25 498.828125 578.339844 498.835938 C 578.464844 498.847656 578.585938 498.914062 578.652344 499.023438 C 578.664062 498.941406 578.707031 498.839844 578.757812 498.777344 C 578.808594 498.714844 578.882812 498.667969 578.960938 498.65625 C 579.050781 498.644531 579.140625 498.667969 579.21875 498.714844 C 579.292969 498.757812 579.308594 498.769531 579.371094 498.832031 C 579.460938 498.710938 579.617188 498.597656 579.765625 498.570312 C 579.839844 498.550781 579.917969 498.550781 579.992188 498.53125 C 580.121094 498.492188 580.25 498.394531 580.304688 498.273438 C 580.40625 498.332031 580.53125 498.316406 580.644531 498.351562 C 580.710938 498.371094 580.769531 498.40625 580.832031 498.417969 C 580.917969 498.4375 581.003906 498.421875 581.089844 498.441406 C 581.265625 498.480469 581.367188 498.660156 581.539062 498.71875 C 581.640625 498.640625 581.761719 498.582031 581.886719 498.550781 C 581.921875 498.539062 581.957031 498.535156 581.992188 498.539062 C 582.046875 498.546875 582.09375 498.585938 582.128906 498.625 C 582.222656 498.726562 582.277344 498.832031 582.292969 498.96875 C 582.378906 498.929688 582.472656 498.917969 582.566406 498.910156 C 582.660156 498.898438 582.753906 498.890625 582.839844 498.851562 C 582.925781 498.8125 583.003906 498.734375 583.023438 498.644531 C 583.117188 498.730469 583.261719 498.761719 583.382812 498.714844 C 583.460938 498.6875 583.523438 498.632812 583.601562 498.601562 C 583.746094 498.539062 583.90625 498.5625 584.066406 498.589844 C 584.152344 498.445312 584.273438 498.316406 584.410156 498.21875 C 584.449219 498.191406 584.488281 498.164062 584.535156 498.15625 C 584.589844 498.148438 584.648438 498.167969 584.695312 498.191406 C 584.875 498.277344 585.011719 498.445312 585.0625 498.636719 L 585.0625 498.605469 C 585.195312 498.546875 585.347656 498.539062 585.488281 498.582031 C 585.589844 498.613281 585.683594 498.671875 585.785156 498.703125 C 585.886719 498.734375 586.011719 498.734375 586.089844 498.660156 C 586.125 498.765625 586.222656 498.859375 586.328125 498.894531 C 586.484375 498.941406 586.660156 498.886719 586.804688 498.960938 C 586.859375 498.832031 586.9375 498.707031 587.035156 498.609375 C 587.070312 498.578125 587.105469 498.546875 587.152344 498.535156 C 587.207031 498.519531 587.265625 498.539062 587.316406 498.558594 C 587.449219 498.613281 587.5 498.628906 587.613281 498.714844 C 587.703125 498.625 587.800781 498.53125 587.921875 498.488281 C 588.03125 498.453125 588.148438 498.464844 588.257812 498.429688 C 588.332031 498.40625 588.402344 498.359375 588.480469 498.34375 C 588.53125 498.332031 588.585938 498.332031 588.636719 498.328125 C 588.691406 498.324219 588.746094 498.3125 588.785156 498.277344 C 588.851562 498.382812 588.949219 498.496094 589.066406 498.539062 C 589.207031 498.59375 589.382812 498.53125 589.511719 498.613281 C 589.5625 498.644531 589.597656 498.695312 589.636719 498.738281 C 589.679688 498.78125 589.734375 498.820312 589.792969 498.816406 C 589.894531 498.746094 590.007812 498.675781 590.121094 498.632812 C 590.152344 498.621094 590.183594 498.609375 590.214844 498.613281 C 590.257812 498.621094 590.292969 498.652344 590.320312 498.683594 C 590.398438 498.777344 590.453125 498.890625 590.480469 499.007812 C 590.542969 498.914062 590.667969 498.863281 590.777344 498.847656 C 590.890625 498.828125 591.007812 498.828125 591.113281 498.785156 C 591.203125 498.75 591.28125 498.683594 591.332031 498.597656 C 591.441406 498.683594 591.605469 498.6875 591.742188 498.65625 C 591.878906 498.628906 592.003906 498.566406 592.136719 498.519531 C 592.425781 498.421875 592.792969 498.40625 593.089844 498.476562 C 593.121094 498.777344 593.097656 499.082031 593.019531 499.371094 C 592.953125 499.609375 592.855469 499.839844 592.847656 500.085938 C 592.871094 500.097656 592.894531 500.117188 592.910156 500.140625 C 592.921875 500.164062 592.925781 500.191406 592.917969 500.214844 C 592.898438 500.253906 592.855469 500.265625 592.820312 500.289062 C 592.769531 500.320312 592.738281 500.394531 592.738281 500.457031 C 592.714844 500.542969 592.710938 500.632812 592.695312 500.71875 C 592.683594 500.808594 592.660156 500.898438 592.609375 500.972656 C 592.566406 501.03125 592.566406 501.027344 592.507812 501.070312 L 592.511719 501.070312 C 592.632812 501.097656 592.773438 501.152344 592.835938 501.257812 C 592.882812 501.339844 592.882812 501.445312 592.855469 501.535156 C 592.824219 501.628906 592.765625 501.726562 592.707031 501.800781 C 592.828125 501.871094 592.917969 501.996094 592.949219 502.132812 C 592.972656 502.230469 592.964844 502.335938 592.996094 502.433594 C 593.035156 502.566406 593.15625 502.652344 593.273438 502.738281 C 593.199219 502.859375 593.167969 503.003906 593.144531 503.148438 C 593.125 503.289062 593.109375 503.433594 593.066406 503.570312 C 593.023438 503.710938 592.9375 503.84375 592.816406 503.921875 C 592.953125 504.011719 593.03125 504.191406 593 504.359375 C 592.972656 504.523438 592.839844 504.664062 592.675781 504.703125 C 592.664062 504.695312 592.617188 504.707031 592.609375 504.71875 C 592.601562 504.730469 592.605469 504.746094 592.605469 504.761719 C 592.617188 504.910156 592.632812 505.058594 592.667969 505.199219 C 592.683594 505.25 592.699219 505.304688 592.734375 505.34375 C 592.773438 505.386719 592.828125 505.410156 592.882812 505.433594 C 592.804688 505.523438 592.78125 505.65625 592.8125 505.769531 C 592.84375 505.867188 592.914062 505.949219 592.949219 506.046875 C 592.976562 506.136719 592.980469 506.246094 592.96875 506.335938 C 592.949219 506.390625 592.972656 506.453125 593.007812 506.496094 C 593.042969 506.542969 593.089844 506.574219 593.136719 506.613281 C 593.203125 506.664062 593.265625 506.726562 593.316406 506.796875 C 593.351562 506.835938 593.378906 506.882812 593.390625 506.933594 C 593.398438 507.003906 593.375 507.074219 593.339844 507.132812 Z M 593.339844 507.132812 " fill-opacity="1" fill-rule="nonzero"/></g><g clip-path="url(#f5692cf640)"><path fill="#000000" d="M 575.554688 497.980469 L 593.554688 497.980469 L 593.554688 515.980469 L 575.554688 515.980469 Z M 575.554688 497.980469 " fill-opacity="1" fill-rule="nonzero"/></g></svg>