<svg xmlns="http://www.w3.org/2000/svg" xmlns:xlink="http://www.w3.org/1999/xlink" width="1080" zoomAndPan="magnify" viewBox="0 0 810 809.999993" height="1080" preserveAspectRatio="xMidYMid meet" version="1.0"><defs><clipPath id="ca751168e0"><path d="M 24.527344 24.527344 L 785.777344 24.527344 L 785.777344 785.777344 L 24.527344 785.777344 Z M 24.527344 24.527344 " clip-rule="nonzero"/></clipPath><clipPath id="8d52a3dc8b"><path d="M 486.570312 454.625 L 501.402344 454.625 L 501.402344 503.695312 L 486.570312 503.695312 Z M 486.570312 454.625 " clip-rule="nonzero"/></clipPath><clipPath id="fb6e44f849"><path d="M 493.984375 454.625 C 495.953125 454.625 497.839844 455.40625 499.230469 456.796875 C 500.621094 458.1875 501.402344 460.074219 501.402344 462.042969 L 501.402344 496.269531 C 501.402344 498.234375 500.621094 500.121094 499.230469 501.511719 C 497.839844 502.902344 495.953125 503.683594 493.984375 503.683594 C 492.019531 503.683594 490.132812 502.902344 488.742188 501.511719 C 487.351562 500.121094 486.570312 498.234375 486.570312 496.269531 L 486.570312 462.042969 C 486.570312 460.074219 487.351562 458.1875 488.742188 456.796875 C 490.132812 455.40625 492.019531 454.625 493.984375 454.625 Z M 493.984375 454.625 " clip-rule="nonzero"/></clipPath></defs><g clip-path="url(#ca751168e0)"><path fill="#000000" d="M 405.152344 785.777344 C 411.382812 785.777344 417.609375 785.625 423.828125 785.320312 C 430.050781 785.015625 436.261719 784.554688 442.460938 783.945312 C 448.660156 783.335938 454.839844 782.574219 461.003906 781.660156 C 467.164062 780.746094 473.300781 779.679688 479.410156 778.464844 C 485.519531 777.25 491.59375 775.886719 497.636719 774.371094 C 503.679688 772.859375 509.683594 771.195312 515.644531 769.386719 C 521.605469 767.582031 527.515625 765.625 533.382812 763.527344 C 539.246094 761.429688 545.058594 759.1875 550.8125 756.804688 C 556.566406 754.421875 562.261719 751.898438 567.890625 749.234375 C 573.523438 746.570312 579.085938 743.769531 584.578125 740.835938 C 590.070312 737.898438 595.492188 734.828125 600.832031 731.625 C 606.175781 728.421875 611.4375 725.09375 616.617188 721.632812 C 621.796875 718.171875 626.886719 714.585938 631.890625 710.875 C 636.894531 707.164062 641.804688 703.332031 646.617188 699.378906 C 651.433594 695.429688 656.148438 691.359375 660.765625 687.175781 C 665.378906 682.996094 669.890625 678.699219 674.296875 674.296875 C 678.699219 669.890625 682.996094 665.378906 687.175781 660.765625 C 691.359375 656.148438 695.429688 651.433594 699.378906 646.617188 C 703.332031 641.804688 707.164062 636.894531 710.875 631.890625 C 714.585938 626.886719 718.171875 621.796875 721.632812 616.617188 C 725.09375 611.4375 728.421875 606.175781 731.625 600.832031 C 734.828125 595.492188 737.898438 590.070312 740.835938 584.578125 C 743.769531 579.085938 746.570312 573.523438 749.234375 567.890625 C 751.898438 562.261719 754.421875 556.566406 756.804688 550.8125 C 759.1875 545.058594 761.429688 539.246094 763.527344 533.382812 C 765.625 527.515625 767.582031 521.605469 769.386719 515.644531 C 771.195312 509.683594 772.859375 503.679688 774.371094 497.636719 C 775.886719 491.59375 777.25 485.519531 778.464844 479.410156 C 779.679688 473.300781 780.746094 467.164062 781.660156 461.003906 C 782.574219 454.839844 783.335938 448.660156 783.945312 442.460938 C 784.554688 436.261719 785.015625 430.050781 785.320312 423.828125 C 785.625 417.609375 785.777344 411.382812 785.777344 405.152344 C 785.777344 398.925781 785.625 392.699219 785.320312 386.476562 C 785.015625 380.253906 784.554688 374.042969 783.945312 367.84375 C 783.335938 361.644531 782.574219 355.464844 781.660156 349.304688 C 780.746094 343.140625 779.679688 337.007812 778.464844 330.898438 C 777.25 324.789062 775.886719 318.710938 774.371094 312.667969 C 772.859375 306.625 771.195312 300.625 769.386719 294.664062 C 767.582031 288.703125 765.625 282.789062 763.527344 276.925781 C 761.429688 271.058594 759.1875 265.25 756.804688 259.496094 C 754.421875 253.738281 751.898438 248.046875 749.234375 242.414062 C 746.570312 236.785156 743.769531 231.222656 740.835938 225.726562 C 737.898438 220.234375 734.828125 214.816406 731.625 209.472656 C 728.421875 204.128906 725.09375 198.867188 721.632812 193.6875 C 718.171875 188.511719 714.585938 183.417969 710.875 178.414062 C 707.164062 173.410156 703.332031 168.503906 699.378906 163.6875 C 695.429688 158.871094 691.359375 154.15625 687.175781 149.542969 C 682.996094 144.925781 678.699219 140.414062 674.296875 136.011719 C 669.890625 131.605469 665.378906 127.3125 660.765625 123.128906 C 656.148438 118.945312 651.433594 114.878906 646.617188 110.925781 C 641.804688 106.972656 636.894531 103.144531 631.890625 99.433594 C 626.886719 95.722656 621.796875 92.136719 616.617188 88.675781 C 611.4375 85.214844 606.175781 81.882812 600.832031 78.679688 C 595.492188 75.476562 590.070312 72.410156 584.578125 69.472656 C 579.085938 66.535156 573.523438 63.734375 567.890625 61.070312 C 562.261719 58.410156 556.566406 55.886719 550.8125 53.5 C 545.058594 51.117188 539.246094 48.875 533.382812 46.777344 C 527.515625 44.679688 521.605469 42.726562 515.644531 40.917969 C 509.683594 39.109375 503.679688 37.449219 497.636719 35.933594 C 491.59375 34.421875 485.519531 33.058594 479.410156 31.839844 C 473.300781 30.625 467.164062 29.5625 461.003906 28.648438 C 454.839844 27.734375 448.660156 26.972656 442.460938 26.359375 C 436.261719 25.75 430.050781 25.292969 423.828125 24.988281 C 417.609375 24.679688 411.382812 24.527344 405.152344 24.527344 C 398.925781 24.527344 392.699219 24.679688 386.476562 24.988281 C 380.253906 25.292969 374.042969 25.75 367.84375 26.359375 C 361.644531 26.972656 355.464844 27.734375 349.304688 28.648438 C 343.140625 29.5625 337.007812 30.625 330.898438 31.839844 C 324.789062 33.058594 318.710938 34.421875 312.667969 35.933594 C 306.625 37.449219 300.625 39.109375 294.664062 40.917969 C 288.703125 42.726562 282.789062 44.679688 276.925781 46.777344 C 271.058594 48.875 265.25 51.117188 259.496094 53.5 C 253.738281 55.886719 248.046875 58.410156 242.414062 61.070312 C 236.785156 63.734375 231.222656 66.535156 225.726562 69.472656 C 220.234375 72.410156 214.816406 75.476562 209.472656 78.679688 C 204.128906 81.882812 198.867188 85.214844 193.6875 88.675781 C 188.511719 92.136719 183.417969 95.722656 178.414062 99.433594 C 173.410156 103.144531 168.503906 106.972656 163.6875 110.925781 C 158.871094 114.878906 154.15625 118.945312 149.542969 123.128906 C 144.925781 127.3125 140.414062 131.605469 136.011719 136.011719 C 131.605469 140.414062 127.3125 144.925781 123.128906 149.542969 C 118.945312 154.15625 114.878906 158.871094 110.925781 163.6875 C 106.972656 168.503906 103.144531 173.410156 99.433594 178.414062 C 95.722656 183.417969 92.136719 188.511719 88.675781 193.6875 C 85.214844 198.867188 81.882812 204.128906 78.679688 209.472656 C 75.476562 214.816406 72.410156 220.234375 69.472656 225.726562 C 66.535156 231.222656 63.734375 236.785156 61.070312 242.414062 C 58.410156 248.046875 55.886719 253.738281 53.5 259.496094 C 51.117188 265.25 48.875 271.058594 46.777344 276.925781 C 44.679688 282.789062 42.726562 288.703125 40.917969 294.664062 C 39.109375 300.625 37.449219 306.625 35.933594 312.667969 C 34.421875 318.710938 33.058594 324.789062 31.839844 330.898438 C 30.625 337.007812 29.5625 343.140625 28.648438 349.304688 C 27.734375 355.464844 26.972656 361.644531 26.359375 367.84375 C 25.75 374.042969 25.292969 380.253906 24.988281 386.476562 C 24.679688 392.699219 24.527344 398.925781 24.527344 405.152344 C 24.527344 411.382812 24.679688 417.609375 24.988281 423.828125 C 25.292969 430.050781 25.75 436.261719 26.359375 442.460938 C 26.972656 448.660156 27.734375 454.839844 28.648438 461.003906 C 29.5625 467.164062 30.625 473.300781 31.839844 479.410156 C 33.058594 485.519531 34.421875 491.59375 35.933594 497.636719 C 37.449219 503.679688 39.109375 509.683594 40.917969 515.644531 C 42.726562 521.605469 44.679688 527.515625 46.777344 533.382812 C 48.875 539.246094 51.117188 545.058594 53.5 550.8125 C 55.886719 556.566406 58.410156 562.261719 61.070312 567.890625 C 63.734375 573.523438 66.535156 579.085938 69.472656 584.578125 C 72.410156 590.070312 75.476562 595.492188 78.679688 600.832031 C 81.882812 606.175781 85.214844 611.4375 88.675781 616.617188 C 92.136719 621.796875 95.722656 626.886719 99.433594 631.890625 C 103.144531 636.894531 106.972656 641.804688 110.925781 646.617188 C 114.878906 651.433594 118.945312 656.148438 123.128906 660.765625 C 127.3125 665.378906 131.605469 669.890625 136.011719 674.296875 C 140.414062 678.699219 144.925781 682.996094 149.542969 687.175781 C 154.15625 691.359375 158.871094 695.429688 163.6875 699.378906 C 168.503906 703.332031 173.410156 707.164062 178.414062 710.875 C 183.417969 714.585938 188.511719 718.171875 193.6875 721.632812 C 198.867188 725.09375 204.128906 728.421875 209.472656 731.625 C 214.816406 734.828125 220.234375 737.898438 225.726562 740.835938 C 231.222656 743.769531 236.785156 746.570312 242.414062 749.234375 C 248.046875 751.898438 253.738281 754.421875 259.496094 756.804688 C 265.25 759.1875 271.058594 761.429688 276.925781 763.527344 C 282.789062 765.625 288.703125 767.582031 294.664062 769.386719 C 300.625 771.195312 306.625 772.859375 312.667969 774.371094 C 318.710938 775.886719 324.789062 777.25 330.898438 778.464844 C 337.007812 779.679688 343.140625 780.746094 349.304688 781.660156 C 355.464844 782.574219 361.644531 783.335938 367.84375 783.945312 C 374.042969 784.554688 380.253906 785.015625 386.476562 785.320312 C 392.699219 785.625 398.925781 785.777344 405.152344 785.777344 Z M 405.152344 49.902344 C 410.96875 49.902344 416.777344 50.046875 422.585938 50.332031 C 428.390625 50.617188 434.1875 51.042969 439.972656 51.613281 C 445.757812 52.183594 451.527344 52.894531 457.277344 53.75 C 463.03125 54.601562 468.757812 55.59375 474.457031 56.730469 C 480.160156 57.863281 485.832031 59.136719 491.472656 60.550781 C 497.113281 61.960938 502.714844 63.511719 508.277344 65.199219 C 513.839844 66.886719 519.359375 68.710938 524.832031 70.667969 C 530.308594 72.628906 535.730469 74.71875 541.101562 76.945312 C 546.472656 79.167969 551.785156 81.523438 557.042969 84.011719 C 562.296875 86.496094 567.488281 89.109375 572.617188 91.851562 C 577.746094 94.589844 582.800781 97.457031 587.789062 100.445312 C 592.773438 103.433594 597.683594 106.542969 602.519531 109.773438 C 607.355469 113.003906 612.105469 116.351562 616.773438 119.8125 C 621.445312 123.277344 626.027344 126.851562 630.519531 130.542969 C 635.015625 134.230469 639.417969 138.027344 643.722656 141.929688 C 648.03125 145.835938 652.242188 149.84375 656.351562 153.953125 C 660.464844 158.066406 664.472656 162.273438 668.375 166.582031 C 672.28125 170.890625 676.078125 175.289062 679.765625 179.785156 C 683.453125 184.277344 687.027344 188.859375 690.492188 193.53125 C 693.957031 198.199219 697.300781 202.953125 700.53125 207.785156 C 703.761719 212.621094 706.871094 217.53125 709.859375 222.519531 C 712.851562 227.503906 715.714844 232.5625 718.457031 237.691406 C 721.195312 242.816406 723.808594 248.007812 726.296875 253.265625 C 728.78125 258.519531 731.136719 263.832031 733.359375 269.203125 C 735.585938 274.578125 737.679688 280 739.636719 285.472656 C 741.59375 290.945312 743.417969 296.464844 745.105469 302.03125 C 746.792969 307.59375 748.34375 313.195312 749.757812 318.835938 C 751.167969 324.472656 752.441406 330.144531 753.578125 335.847656 C 754.710938 341.550781 755.703125 347.277344 756.558594 353.027344 C 757.410156 358.777344 758.121094 364.546875 758.691406 370.332031 C 759.261719 376.117188 759.691406 381.914062 759.976562 387.722656 C 760.261719 393.527344 760.402344 399.339844 760.402344 405.152344 C 760.402344 410.96875 760.261719 416.777344 759.976562 422.585938 C 759.691406 428.390625 759.261719 434.1875 758.691406 439.972656 C 758.121094 445.757812 757.410156 451.527344 756.558594 457.277344 C 755.703125 463.03125 754.710938 468.757812 753.578125 474.457031 C 752.441406 480.160156 751.167969 485.832031 749.757812 491.472656 C 748.34375 497.113281 746.792969 502.714844 745.105469 508.277344 C 743.417969 513.839844 741.59375 519.359375 739.636719 524.832031 C 737.679688 530.308594 735.585938 535.730469 733.359375 541.101562 C 731.136719 546.472656 728.78125 551.785156 726.296875 557.042969 C 723.808594 562.296875 721.195312 567.488281 718.457031 572.617188 C 715.714844 577.746094 712.851562 582.800781 709.859375 587.789062 C 706.871094 592.773438 703.761719 597.683594 700.53125 602.519531 C 697.300781 607.355469 693.957031 612.105469 690.492188 616.773438 C 687.027344 621.445312 683.453125 626.027344 679.765625 630.519531 C 676.078125 635.015625 672.28125 639.417969 668.375 643.722656 C 664.472656 648.03125 660.464844 652.242188 656.351562 656.351562 C 652.242188 660.464844 648.03125 664.472656 643.722656 668.375 C 639.417969 672.28125 635.015625 676.078125 630.519531 679.765625 C 626.027344 683.453125 621.445312 687.027344 616.773438 690.492188 C 612.105469 693.957031 607.355469 697.300781 602.519531 700.53125 C 597.683594 703.761719 592.773438 706.871094 587.789062 709.859375 C 582.800781 712.851562 577.746094 715.714844 572.617188 718.457031 C 567.488281 721.195312 562.296875 723.808594 557.042969 726.296875 C 551.785156 728.78125 546.472656 731.136719 541.101562 733.359375 C 535.730469 735.585938 530.308594 737.679688 524.832031 739.636719 C 519.359375 741.59375 513.839844 743.417969 508.277344 745.105469 C 502.714844 746.792969 497.113281 748.34375 491.472656 749.757812 C 485.832031 751.167969 480.160156 752.441406 474.457031 753.578125 C 468.757812 754.710938 463.03125 755.703125 457.277344 756.558594 C 451.527344 757.410156 445.757812 758.121094 439.972656 758.691406 C 434.1875 759.261719 428.390625 759.691406 422.585938 759.976562 C 416.777344 760.261719 410.96875 760.402344 405.152344 760.402344 C 399.339844 760.402344 393.527344 760.261719 387.722656 759.976562 C 381.914062 759.691406 376.117188 759.261719 370.332031 758.691406 C 364.546875 758.121094 358.777344 757.410156 353.027344 756.558594 C 347.277344 755.703125 341.550781 754.710938 335.847656 753.578125 C 330.144531 752.441406 324.472656 751.167969 318.835938 749.757812 C 313.195312 748.34375 307.59375 746.792969 302.03125 745.105469 C 296.464844 743.417969 290.945312 741.59375 285.472656 739.636719 C 280 737.679688 274.578125 735.585938 269.203125 733.359375 C 263.832031 731.136719 258.519531 728.78125 253.265625 726.296875 C 248.007812 723.808594 242.816406 721.195312 237.6875 718.457031 C 232.5625 715.714844 227.503906 712.851562 222.519531 709.859375 C 217.53125 706.871094 212.621094 703.761719 207.785156 700.53125 C 202.953125 697.300781 198.199219 693.957031 193.53125 690.492188 C 188.859375 687.027344 184.277344 683.453125 179.785156 679.765625 C 175.289062 676.078125 170.890625 672.28125 166.582031 668.375 C 162.273438 664.472656 158.066406 660.464844 153.953125 656.351562 C 149.84375 652.242188 145.835938 648.03125 141.929688 643.722656 C 138.027344 639.417969 134.230469 635.015625 130.542969 630.519531 C 126.851562 626.027344 123.277344 621.445312 119.8125 616.773438 C 116.351562 612.105469 113.003906 607.355469 109.773438 602.519531 C 106.542969 597.683594 103.433594 592.773438 100.445312 587.789062 C 97.457031 582.800781 94.589844 577.746094 91.851562 572.617188 C 89.109375 567.488281 86.496094 562.296875 84.011719 557.042969 C 81.523438 551.785156 79.167969 546.472656 76.945312 541.101562 C 74.71875 535.730469 72.628906 530.308594 70.667969 524.832031 C 68.710938 519.359375 66.886719 513.839844 65.199219 508.277344 C 63.511719 502.714844 61.960938 497.113281 60.550781 491.472656 C 59.136719 485.832031 57.863281 480.160156 56.730469 474.457031 C 55.59375 468.757812 54.601562 463.03125 53.75 457.277344 C 52.894531 451.527344 52.183594 445.757812 51.613281 439.972656 C 51.042969 434.1875 50.617188 428.390625 50.332031 422.585938 C 50.046875 416.777344 49.902344 410.96875 49.902344 405.152344 C 49.902344 399.339844 50.046875 393.527344 50.332031 387.722656 C 50.617188 381.914062 51.042969 376.117188 51.613281 370.332031 C 52.183594 364.546875 52.894531 358.777344 53.75 353.027344 C 54.601562 347.277344 55.59375 341.550781 56.730469 335.847656 C 57.863281 330.144531 59.136719 324.472656 60.550781 318.835938 C 61.960938 313.195312 63.511719 307.59375 65.199219 302.03125 C 66.886719 296.464844 68.710938 290.945312 70.667969 285.472656 C 72.628906 280 74.71875 274.578125 76.945312 269.203125 C 79.167969 263.832031 81.523438 258.519531 84.011719 253.265625 C 86.496094 248.007812 89.109375 242.816406 91.851562 237.691406 C 94.589844 232.5625 97.457031 227.503906 100.445312 222.519531 C 103.433594 217.53125 106.542969 212.621094 109.773438 207.785156 C 113.003906 202.953125 116.351562 198.199219 119.8125 193.53125 C 123.277344 188.859375 126.851562 184.277344 130.542969 179.785156 C 134.230469 175.289062 138.027344 170.890625 141.929688 166.582031 C 145.835938 162.273438 149.84375 158.066406 153.953125 153.953125 C 158.066406 149.84375 162.273438 145.835938 166.582031 141.929688 C 170.890625 138.027344 175.289062 134.230469 179.785156 130.542969 C 184.277344 126.851562 188.859375 123.277344 193.53125 119.8125 C 198.199219 116.351562 202.953125 113.003906 207.785156 109.773438 C 212.621094 106.542969 217.53125 103.433594 222.519531 100.445312 C 227.503906 97.457031 232.5625 94.589844 237.691406 91.851562 C 242.816406 89.109375 248.007812 86.496094 253.265625 84.011719 C 258.519531 81.523438 263.832031 79.167969 269.203125 76.945312 C 274.578125 74.71875 280 72.628906 285.472656 70.667969 C 290.945312 68.710938 296.464844 66.886719 302.03125 65.199219 C 307.59375 63.511719 313.195312 61.960938 318.835938 60.550781 C 324.472656 59.136719 330.144531 57.863281 335.847656 56.730469 C 341.550781 55.59375 347.277344 54.601562 353.027344 53.75 C 358.777344 52.894531 364.546875 52.183594 370.332031 51.613281 C 376.117188 51.042969 381.914062 50.617188 387.722656 50.332031 C 393.527344 50.046875 399.339844 49.902344 405.152344 49.902344 Z M 405.152344 49.902344 " fill-opacity="1" fill-rule="nonzero"/></g><path fill="#000000" d="M 234.886719 660.550781 C 237.058594 662.070312 239.46875 662.828125 242.117188 662.835938 C 243.148438 662.828125 244.160156 662.695312 245.15625 662.441406 C 246.152344 662.1875 247.101562 661.816406 248.007812 661.328125 C 248.914062 660.84375 249.75 660.253906 250.515625 659.566406 C 251.277344 658.875 251.945312 658.105469 252.523438 657.253906 C 252.992188 656.566406 253.390625 655.839844 253.71875 655.074219 C 254.046875 654.308594 254.296875 653.515625 254.46875 652.703125 C 254.640625 651.886719 254.730469 651.0625 254.742188 650.230469 C 254.75 649.398438 254.679688 648.570312 254.523438 647.753906 C 254.371094 646.933594 254.140625 646.136719 253.832031 645.363281 C 253.519531 644.589844 253.136719 643.855469 252.683594 643.160156 C 252.230469 642.460938 251.710938 641.8125 251.128906 641.21875 C 250.546875 640.621094 249.910156 640.089844 249.222656 639.617188 C 245.066406 636.769531 240.984375 633.808594 236.988281 630.738281 C 232.988281 627.667969 229.074219 624.492188 225.25 621.207031 C 221.421875 617.925781 217.6875 614.542969 214.042969 611.058594 C 210.402344 607.574219 206.855469 603.992188 203.40625 600.3125 C 199.957031 596.636719 196.609375 592.871094 193.363281 589.011719 C 190.117188 585.152344 186.980469 581.207031 183.949219 577.179688 C 180.917969 573.152344 177.996094 569.042969 175.1875 564.855469 C 172.378906 560.671875 169.6875 556.410156 167.109375 552.078125 C 164.53125 547.746094 162.070312 543.347656 159.730469 538.878906 C 157.394531 534.414062 155.175781 529.886719 153.082031 525.300781 C 150.988281 520.714844 149.019531 516.078125 147.175781 511.382812 C 145.332031 506.691406 143.617188 501.953125 142.03125 497.167969 C 140.445312 492.378906 138.992188 487.554688 137.664062 482.691406 C 136.339844 477.828125 135.148438 472.929688 134.089844 468 C 133.03125 463.070312 132.105469 458.117188 131.3125 453.136719 C 130.523438 448.160156 129.867188 443.160156 129.347656 438.148438 C 128.828125 433.132812 128.445312 428.109375 128.195312 423.070312 C 127.949219 418.035156 127.835938 412.996094 127.863281 407.957031 C 127.886719 402.914062 128.050781 397.878906 128.347656 392.84375 C 128.644531 387.8125 129.078125 382.789062 129.648438 377.78125 C 130.21875 372.773438 130.925781 367.78125 131.765625 362.8125 C 132.605469 357.839844 133.582031 352.894531 134.691406 347.976562 C 135.796875 343.058594 137.039062 338.175781 138.414062 333.324219 C 139.785156 328.472656 141.289062 323.660156 142.921875 318.890625 C 144.558594 314.121094 146.320312 309.402344 148.207031 304.726562 C 150.097656 300.050781 152.113281 295.433594 154.253906 290.867188 C 156.394531 286.304688 158.65625 281.800781 161.039062 277.355469 C 163.425781 272.914062 165.925781 268.539062 168.546875 264.234375 C 171.167969 259.925781 173.90625 255.695312 176.753906 251.535156 C 179.605469 247.378906 182.566406 243.300781 185.636719 239.300781 C 188.710938 235.304688 191.886719 231.390625 195.171875 227.566406 C 198.453125 223.738281 201.839844 220.003906 205.324219 216.363281 C 205.828125 215.75 206.273438 215.097656 206.65625 214.402344 C 207.039062 213.707031 207.351562 212.980469 207.597656 212.226562 C 207.84375 211.472656 208.019531 210.703125 208.121094 209.917969 C 208.222656 209.128906 208.25 208.339844 208.203125 207.546875 C 208.160156 206.753906 208.039062 205.976562 207.847656 205.203125 C 207.652344 204.433594 207.390625 203.691406 207.058594 202.96875 C 206.726562 202.25 206.328125 201.566406 205.867188 200.921875 C 205.40625 200.273438 204.890625 199.675781 204.316406 199.128906 C 203.746094 198.578125 203.125 198.089844 202.460938 197.65625 C 201.796875 197.222656 201.097656 196.855469 200.363281 196.554688 C 199.628906 196.25 198.871094 196.019531 198.097656 195.859375 C 197.320312 195.699219 196.535156 195.613281 195.738281 195.601562 C 194.945312 195.589844 194.160156 195.652344 193.378906 195.785156 C 192.59375 195.921875 191.832031 196.128906 191.089844 196.40625 C 190.347656 196.683594 189.636719 197.03125 188.957031 197.441406 C 188.277344 197.851562 187.644531 198.324219 187.054688 198.855469 C 183.253906 202.828125 179.5625 206.902344 175.980469 211.074219 C 172.398438 215.246094 168.929688 219.511719 165.582031 223.875 C 162.230469 228.234375 159 232.683594 155.890625 237.21875 C 152.78125 241.753906 149.796875 246.371094 146.9375 251.070312 C 144.078125 255.765625 141.347656 260.539062 138.746094 265.382812 C 136.148438 270.230469 133.679688 275.140625 131.34375 280.121094 C 129.011719 285.101562 126.8125 290.140625 124.75 295.238281 C 122.6875 300.335938 120.765625 305.484375 118.984375 310.6875 C 117.203125 315.890625 115.5625 321.136719 114.0625 326.429688 C 112.5625 331.71875 111.210938 337.046875 110 342.414062 C 108.792969 347.777344 107.726562 353.171875 106.808594 358.59375 C 105.894531 364.015625 105.121094 369.457031 104.5 374.921875 C 103.878906 380.386719 103.402344 385.863281 103.078125 391.351562 C 102.753906 396.84375 102.574219 402.335938 102.546875 407.835938 C 102.519531 413.335938 102.640625 418.832031 102.910156 424.324219 C 103.179688 429.816406 103.597656 435.296875 104.164062 440.769531 C 104.730469 446.238281 105.445312 451.691406 106.308594 457.121094 C 107.167969 462.550781 108.179688 467.957031 109.332031 473.332031 C 110.488281 478.710938 111.785156 484.050781 113.230469 489.359375 C 114.675781 494.664062 116.261719 499.925781 117.992188 505.148438 C 119.722656 510.367188 121.589844 515.539062 123.601562 520.65625 C 125.609375 525.777344 127.757812 530.835938 130.039062 535.839844 C 132.324219 540.84375 134.742188 545.777344 137.292969 550.652344 C 139.84375 555.523438 142.523438 560.320312 145.335938 565.046875 C 148.148438 569.773438 151.085938 574.421875 154.148438 578.988281 C 157.210938 583.554688 160.394531 588.039062 163.699219 592.433594 C 167.007812 596.828125 170.429688 601.128906 173.96875 605.339844 C 177.507812 609.546875 181.15625 613.660156 184.917969 617.671875 C 188.679688 621.683594 192.546875 625.589844 196.519531 629.390625 C 200.492188 633.191406 204.566406 636.882812 208.738281 640.464844 C 212.914062 644.046875 217.179688 647.511719 221.542969 650.863281 C 225.902344 654.214844 230.351562 657.445312 234.886719 660.550781 Z M 234.886719 660.550781 " fill-opacity="1" fill-rule="nonzero"/><path fill="#000000" d="M 345.523438 694.9375 C 345.375 695.761719 345.3125 696.59375 345.332031 697.429688 C 345.351562 698.265625 345.453125 699.09375 345.636719 699.914062 C 345.820312 700.730469 346.082031 701.523438 346.421875 702.289062 C 346.761719 703.054688 347.171875 703.777344 347.65625 704.460938 C 348.140625 705.148438 348.6875 705.777344 349.292969 706.351562 C 349.902344 706.929688 350.5625 707.441406 351.273438 707.886719 C 351.980469 708.332031 352.726562 708.703125 353.511719 709 C 354.292969 709.296875 355.097656 709.515625 355.925781 709.652344 C 372.726562 712.433594 389.644531 713.828125 406.675781 713.839844 C 426.527344 713.851562 446.191406 711.949219 465.671875 708.128906 C 466.503906 707.972656 467.316406 707.734375 468.101562 707.417969 C 468.886719 707.097656 469.636719 706.707031 470.34375 706.242188 C 471.054688 705.777344 471.710938 705.246094 472.316406 704.652344 C 472.917969 704.058594 473.460938 703.410156 473.9375 702.710938 C 474.414062 702.007812 474.820312 701.269531 475.152344 700.488281 C 475.480469 699.707031 475.734375 698.902344 475.90625 698.070312 C 476.078125 697.242188 476.167969 696.402344 476.175781 695.554688 C 476.183594 694.707031 476.109375 693.867188 475.949219 693.03125 C 475.792969 692.199219 475.554688 691.390625 475.234375 690.605469 C 474.917969 689.816406 474.527344 689.070312 474.0625 688.359375 C 473.597656 687.652344 473.066406 686.996094 472.472656 686.390625 C 471.878906 685.785156 471.230469 685.246094 470.527344 684.765625 C 469.828125 684.289062 469.085938 683.886719 468.304688 683.554688 C 467.527344 683.222656 466.71875 682.972656 465.890625 682.800781 C 465.058594 682.625 464.21875 682.535156 463.371094 682.527344 C 462.523438 682.523438 461.683594 682.597656 460.851562 682.753906 C 444.109375 686 427.210938 687.730469 410.160156 687.945312 C 393.105469 688.15625 376.167969 686.851562 359.351562 684.023438 C 358.542969 683.945312 357.730469 683.941406 356.921875 684.015625 C 356.109375 684.089844 355.316406 684.242188 354.535156 684.472656 C 353.753906 684.699219 353 685 352.277344 685.375 C 351.554688 685.746094 350.875 686.183594 350.234375 686.6875 C 349.59375 687.191406 349.011719 687.753906 348.480469 688.371094 C 347.949219 688.988281 347.480469 689.648438 347.078125 690.355469 C 346.671875 691.0625 346.339844 691.800781 346.078125 692.570312 C 345.816406 693.339844 345.632812 694.128906 345.523438 694.9375 Z M 345.523438 694.9375 " fill-opacity="1" fill-rule="nonzero"/><path fill="#000000" d="M 570.851562 635.429688 C 570.25 635.800781 569.6875 636.214844 569.15625 636.679688 C 568.625 637.140625 568.136719 637.644531 567.6875 638.1875 C 567.242188 638.730469 566.84375 639.308594 566.492188 639.917969 C 566.140625 640.53125 565.839844 641.164062 565.597656 641.824219 C 565.351562 642.484375 565.160156 643.160156 565.03125 643.851562 C 564.898438 644.542969 564.820312 645.242188 564.804688 645.945312 C 564.789062 646.648438 564.832031 647.351562 564.929688 648.046875 C 565.03125 648.746094 565.1875 649.429688 565.402344 650.097656 C 565.617188 650.769531 565.882812 651.417969 566.207031 652.042969 C 566.527344 652.671875 566.898438 653.265625 567.320312 653.832031 C 567.742188 654.394531 568.207031 654.921875 568.714844 655.40625 C 569.222656 655.894531 569.769531 656.335938 570.351562 656.734375 C 570.933594 657.128906 571.542969 657.472656 572.183594 657.769531 C 572.824219 658.0625 573.484375 658.304688 574.164062 658.488281 C 574.839844 658.671875 575.53125 658.800781 576.234375 658.867188 C 576.933594 658.9375 577.636719 658.949219 578.335938 658.902344 C 579.660156 658.894531 580.949219 658.683594 582.207031 658.273438 C 583.460938 657.863281 584.625 657.269531 585.695312 656.492188 C 589.96875 653.398438 594.160156 650.199219 598.269531 646.886719 C 602.375 643.578125 606.394531 640.164062 610.324219 636.644531 C 614.253906 633.125 618.089844 629.507812 621.832031 625.789062 C 625.574219 622.070312 629.21875 618.257812 632.761719 614.347656 C 636.304688 610.441406 639.746094 606.441406 643.082031 602.355469 C 646.417969 598.269531 649.644531 594.097656 652.765625 589.84375 C 655.882812 585.589844 658.890625 581.257812 661.785156 576.847656 C 664.679688 572.4375 667.457031 567.953125 670.117188 563.398438 C 672.777344 558.84375 675.320312 554.222656 677.742188 549.535156 C 680.160156 544.847656 682.460938 540.101562 684.632812 535.292969 C 686.808594 530.488281 688.855469 525.628906 690.777344 520.714844 C 692.699219 515.800781 694.492188 510.84375 696.15625 505.835938 C 697.820312 500.832031 699.351562 495.785156 700.753906 490.699219 C 702.15625 485.613281 703.425781 480.492188 704.558594 475.34375 C 705.695312 470.191406 706.695312 465.011719 707.5625 459.808594 C 708.429688 454.605469 709.160156 449.382812 709.753906 444.140625 C 710.347656 438.898438 710.808594 433.644531 711.128906 428.378906 C 711.453125 423.113281 711.636719 417.84375 711.683594 412.566406 C 711.734375 407.292969 711.644531 402.019531 711.417969 396.75 C 711.191406 391.480469 710.828125 386.21875 710.328125 380.964844 C 709.828125 375.714844 709.195312 370.480469 708.421875 365.261719 C 707.652344 360.042969 706.746094 354.847656 705.703125 349.675781 C 704.660156 344.503906 703.484375 339.363281 702.175781 334.25 C 700.867188 329.140625 699.425781 324.066406 697.855469 319.03125 C 696.28125 313.996094 694.582031 309.003906 692.75 304.058594 C 690.917969 299.109375 688.957031 294.214844 686.871094 289.371094 C 684.785156 284.523438 682.574219 279.734375 680.238281 275.007812 C 677.902344 270.277344 675.445312 265.609375 672.867188 261.007812 C 670.292969 256.402344 667.59375 251.871094 664.78125 247.40625 C 661.96875 242.945312 659.042969 238.558594 656 234.25 C 652.957031 229.9375 649.808594 225.710938 646.546875 221.5625 C 643.285156 217.414062 639.917969 213.355469 636.445312 209.386719 C 636.1875 209.027344 635.914062 208.6875 635.621094 208.359375 C 635.328125 208.03125 635.015625 207.71875 634.691406 207.421875 C 634.367188 207.125 634.027344 206.847656 633.671875 206.589844 C 633.316406 206.328125 632.949219 206.085938 632.570312 205.863281 C 632.191406 205.640625 631.800781 205.441406 631.398438 205.257812 C 630.996094 205.078125 630.589844 204.917969 630.171875 204.777344 C 629.753906 204.640625 629.332031 204.523438 628.902344 204.425781 C 628.472656 204.332031 628.039062 204.257812 627.601562 204.210938 C 627.164062 204.160156 626.726562 204.132812 626.285156 204.128906 C 625.84375 204.125 625.40625 204.144531 624.96875 204.183594 C 624.53125 204.226562 624.09375 204.289062 623.664062 204.375 C 623.234375 204.464844 622.808594 204.570312 622.386719 204.703125 C 621.96875 204.832031 621.554688 204.984375 621.152344 205.160156 C 620.746094 205.332031 620.351562 205.527344 619.96875 205.742188 C 619.585938 205.957031 619.210938 206.191406 618.851562 206.445312 C 618.492188 206.699219 618.148438 206.96875 617.816406 207.257812 C 617.484375 207.546875 617.167969 207.855469 616.871094 208.175781 C 616.570312 208.5 616.289062 208.835938 616.023438 209.1875 C 615.757812 209.539062 615.515625 209.902344 615.289062 210.28125 C 615.0625 210.65625 614.855469 211.046875 614.667969 211.445312 C 614.480469 211.84375 614.316406 212.25 614.171875 212.664062 C 614.027344 213.082031 613.90625 213.503906 613.808594 213.933594 C 613.707031 214.359375 613.628906 214.792969 613.574219 215.230469 C 613.519531 215.664062 613.488281 216.105469 613.476562 216.542969 C 613.46875 216.984375 613.480469 217.421875 613.519531 217.863281 C 613.554688 218.300781 613.613281 218.734375 613.695312 219.167969 C 613.777344 219.601562 613.878906 220.027344 614.007812 220.449219 C 614.132812 220.871094 614.28125 221.285156 614.449219 221.691406 C 614.617188 222.097656 614.808594 222.492188 615.015625 222.878906 C 615.226562 223.265625 615.457031 223.640625 615.707031 224.003906 C 615.957031 224.363281 616.222656 224.714844 616.507812 225.046875 C 616.792969 225.382812 617.097656 225.703125 617.414062 226.003906 C 620.601562 229.644531 623.691406 233.363281 626.683594 237.164062 C 629.675781 240.964844 632.566406 244.839844 635.359375 248.789062 C 638.148438 252.738281 640.835938 256.757812 643.417969 260.847656 C 646 264.9375 648.472656 269.09375 650.839844 273.3125 C 653.207031 277.53125 655.460938 281.808594 657.605469 286.144531 C 659.75 290.476562 661.777344 294.867188 663.695312 299.308594 C 665.609375 303.75 667.410156 308.238281 669.09375 312.773438 C 670.773438 317.304688 672.339844 321.882812 673.78125 326.496094 C 675.226562 331.113281 676.550781 335.765625 677.753906 340.449219 C 678.957031 345.132812 680.035156 349.847656 680.996094 354.585938 C 681.953125 359.328125 682.785156 364.089844 683.496094 368.875 C 684.207031 373.660156 684.792969 378.460938 685.253906 383.273438 C 685.714844 388.089844 686.050781 392.914062 686.257812 397.746094 C 686.46875 402.578125 686.554688 407.410156 686.511719 412.246094 C 686.472656 417.085938 686.304688 421.917969 686.011719 426.746094 C 685.71875 431.574219 685.300781 436.390625 684.757812 441.195312 C 684.214844 446 683.546875 450.789062 682.757812 455.5625 C 681.964844 460.332031 681.046875 465.082031 680.011719 469.804688 C 678.972656 474.527344 677.8125 479.222656 676.527344 483.886719 C 675.246094 488.550781 673.84375 493.175781 672.320312 497.769531 C 670.796875 502.359375 669.15625 506.90625 667.394531 511.410156 C 665.636719 515.917969 663.757812 520.375 661.769531 524.78125 C 659.777344 529.1875 657.671875 533.542969 655.453125 537.839844 C 653.238281 542.140625 650.910156 546.375 648.472656 550.554688 C 646.035156 554.730469 643.488281 558.84375 640.835938 562.886719 C 638.183594 566.933594 635.429688 570.90625 632.574219 574.808594 C 629.714844 578.710938 626.757812 582.535156 623.699219 586.285156 C 620.640625 590.03125 617.488281 593.699219 614.242188 597.28125 C 610.996094 600.867188 607.65625 604.363281 604.226562 607.773438 C 600.796875 611.183594 597.28125 614.503906 593.679688 617.730469 C 590.078125 620.960938 586.394531 624.09375 582.628906 627.128906 C 578.863281 630.164062 575.023438 633.101562 571.105469 635.9375 Z M 570.851562 635.429688 " fill-opacity="1" fill-rule="nonzero"/><path fill="#000000" d="M 265.589844 329.027344 L 265.589844 684.277344 C 265.589844 685.523438 265.652344 686.769531 265.773438 688.007812 C 265.894531 689.25 266.078125 690.480469 266.320312 691.703125 C 266.566406 692.925781 266.867188 694.132812 267.230469 695.328125 C 267.589844 696.519531 268.011719 697.691406 268.488281 698.84375 C 268.964844 699.996094 269.496094 701.121094 270.085938 702.21875 C 270.671875 703.320312 271.3125 704.386719 272.003906 705.425781 C 272.699219 706.460938 273.441406 707.460938 274.230469 708.425781 C 275.019531 709.386719 275.859375 710.3125 276.738281 711.191406 C 277.621094 712.074219 278.542969 712.910156 279.507812 713.699219 C 280.46875 714.492188 281.46875 715.234375 282.507812 715.925781 C 283.542969 716.617188 284.609375 717.257812 285.710938 717.847656 C 286.808594 718.433594 287.9375 718.964844 289.085938 719.441406 C 290.238281 719.921875 291.410156 720.339844 292.605469 720.703125 C 293.796875 721.0625 295.003906 721.367188 296.226562 721.609375 C 297.449219 721.851562 298.683594 722.035156 299.921875 722.15625 C 301.164062 722.28125 302.40625 722.339844 303.652344 722.339844 C 304.898438 722.339844 306.144531 722.28125 307.382812 722.15625 C 308.625 722.035156 309.855469 721.851562 311.078125 721.609375 C 312.300781 721.367188 313.507812 721.0625 314.703125 720.703125 C 315.894531 720.339844 317.066406 719.921875 318.21875 719.441406 C 319.371094 718.964844 320.496094 718.433594 321.59375 717.847656 C 322.695312 717.257812 323.761719 716.617188 324.800781 715.925781 C 325.835938 715.234375 326.835938 714.492188 327.800781 713.699219 C 328.761719 712.910156 329.6875 712.074219 330.566406 711.191406 C 331.449219 710.3125 332.285156 709.386719 333.074219 708.425781 C 333.867188 707.460938 334.609375 706.460938 335.300781 705.425781 C 335.992188 704.386719 336.632812 703.320312 337.222656 702.21875 C 337.808594 701.121094 338.339844 699.996094 338.816406 698.84375 C 339.296875 697.691406 339.714844 696.519531 340.078125 695.328125 C 340.4375 694.132812 340.742188 692.925781 340.984375 691.703125 C 341.226562 690.480469 341.410156 689.25 341.53125 688.007812 C 341.65625 686.769531 341.714844 685.523438 341.714844 684.277344 L 341.714844 329.664062 C 344.574219 328.011719 347.316406 326.183594 349.9375 324.175781 C 352.558594 322.167969 355.039062 320 357.378906 317.667969 C 359.71875 315.339844 361.898438 312.867188 363.914062 310.253906 C 365.933594 307.640625 367.773438 304.90625 369.433594 302.050781 C 371.097656 299.199219 372.566406 296.25 373.84375 293.207031 C 375.121094 290.160156 376.199219 287.046875 377.070312 283.863281 C 377.945312 280.679688 378.605469 277.453125 379.058594 274.179688 C 379.511719 270.910156 379.753906 267.625 379.777344 264.320312 L 379.777344 127.804688 C 379.777344 126.972656 379.695312 126.144531 379.535156 125.328125 C 379.371094 124.511719 379.132812 123.71875 378.8125 122.949219 C 378.492188 122.179688 378.101562 121.449219 377.640625 120.753906 C 377.175781 120.0625 376.652344 119.421875 376.0625 118.832031 C 375.472656 118.242188 374.832031 117.71875 374.140625 117.253906 C 373.445312 116.792969 372.714844 116.402344 371.945312 116.082031 C 371.175781 115.765625 370.382812 115.523438 369.566406 115.359375 C 368.75 115.199219 367.921875 115.117188 367.089844 115.117188 C 366.257812 115.117188 365.433594 115.199219 364.617188 115.359375 C 363.796875 115.523438 363.003906 115.765625 362.234375 116.082031 C 361.464844 116.402344 360.734375 116.792969 360.042969 117.253906 C 359.347656 117.71875 358.707031 118.242188 358.121094 118.832031 C 357.53125 119.421875 357.003906 120.0625 356.542969 120.753906 C 356.078125 121.449219 355.6875 122.179688 355.367188 122.949219 C 355.050781 123.71875 354.808594 124.511719 354.648438 125.328125 C 354.484375 126.144531 354.402344 126.972656 354.402344 127.804688 L 354.402344 264.320312 C 354.382812 266.757812 354.183594 269.179688 353.8125 271.589844 C 353.441406 273.996094 352.902344 276.367188 352.1875 278.695312 C 351.476562 281.027344 350.601562 283.292969 349.5625 285.496094 C 348.523438 287.703125 347.332031 289.820312 345.988281 291.851562 C 344.644531 293.886719 343.164062 295.8125 341.542969 297.628906 C 339.921875 299.449219 338.175781 301.140625 336.3125 302.710938 C 334.445312 304.277344 332.480469 305.703125 330.410156 306.988281 C 328.339844 308.273438 326.1875 309.402344 323.953125 310.378906 L 322.8125 311.140625 C 321.808594 311.714844 320.875 312.390625 320.019531 313.167969 C 319.511719 313.816406 319.046875 314.492188 318.625 315.199219 C 318.082031 315.800781 317.660156 316.476562 317.355469 317.230469 C 316.921875 318.332031 316.667969 319.472656 316.59375 320.65625 C 316.59375 320.65625 316.59375 321.542969 316.59375 322.050781 L 316.59375 684.277344 C 316.59375 685.109375 316.511719 685.9375 316.351562 686.753906 C 316.1875 687.570312 315.949219 688.363281 315.628906 689.132812 C 315.308594 689.902344 314.917969 690.632812 314.457031 691.328125 C 313.992188 692.019531 313.46875 692.660156 312.878906 693.25 C 312.289062 693.839844 311.648438 694.363281 310.957031 694.828125 C 310.261719 695.289062 309.53125 695.679688 308.761719 696 C 307.992188 696.320312 307.199219 696.558594 306.382812 696.722656 C 305.566406 696.882812 304.738281 696.964844 303.90625 696.964844 C 303.074219 696.964844 302.25 696.882812 301.433594 696.722656 C 300.613281 696.558594 299.820312 696.320312 299.050781 696 C 298.28125 695.679688 297.550781 695.289062 296.859375 694.828125 C 296.164062 694.363281 295.523438 693.839844 294.933594 693.25 C 294.347656 692.660156 293.820312 692.019531 293.359375 691.328125 C 292.894531 690.632812 292.503906 689.902344 292.183594 689.132812 C 291.867188 688.363281 291.625 687.570312 291.464844 686.753906 C 291.300781 685.9375 291.21875 685.109375 291.21875 684.277344 L 291.21875 322.175781 C 291.277344 321.796875 291.277344 321.414062 291.21875 321.035156 C 291.160156 319.769531 290.90625 318.542969 290.457031 317.355469 C 290.109375 316.632812 289.6875 315.957031 289.1875 315.324219 C 288.796875 314.597656 288.332031 313.921875 287.792969 313.296875 C 286.816406 312.359375 285.714844 311.597656 284.496094 311.011719 L 283.859375 311.011719 C 277.953125 308.546875 272.753906 305.035156 268.253906 300.480469 C 265.804688 298.152344 263.621094 295.601562 261.695312 292.824219 C 259.769531 290.046875 258.148438 287.105469 256.828125 283.996094 C 255.507812 280.886719 254.515625 277.671875 253.855469 274.359375 C 253.195312 271.046875 252.875 267.699219 252.902344 264.320312 L 252.902344 127.804688 C 252.902344 126.972656 252.820312 126.144531 252.660156 125.328125 C 252.496094 124.511719 252.257812 123.71875 251.9375 122.949219 C 251.617188 122.179688 251.226562 121.449219 250.765625 120.753906 C 250.300781 120.0625 249.777344 119.421875 249.1875 118.832031 C 248.597656 118.242188 247.957031 117.71875 247.265625 117.253906 C 246.570312 116.792969 245.839844 116.402344 245.070312 116.082031 C 244.300781 115.765625 243.507812 115.523438 242.691406 115.359375 C 241.875 115.199219 241.046875 115.117188 240.214844 115.117188 C 239.382812 115.117188 238.558594 115.199219 237.742188 115.359375 C 236.921875 115.523438 236.128906 115.765625 235.359375 116.082031 C 234.589844 116.402344 233.859375 116.792969 233.167969 117.253906 C 232.472656 117.71875 231.832031 118.242188 231.246094 118.832031 C 230.65625 119.421875 230.128906 120.0625 229.667969 120.753906 C 229.203125 121.449219 228.8125 122.179688 228.492188 122.949219 C 228.175781 123.71875 227.933594 124.511719 227.773438 125.328125 C 227.609375 126.144531 227.527344 126.972656 227.527344 127.804688 L 227.527344 264.320312 C 227.523438 266.808594 227.644531 269.292969 227.886719 271.769531 C 228.125 274.246094 228.492188 276.707031 228.976562 279.144531 C 229.460938 281.585938 230.066406 283.996094 230.789062 286.378906 C 231.515625 288.757812 232.355469 291.097656 233.3125 293.394531 C 234.265625 295.691406 235.332031 297.9375 236.511719 300.128906 C 237.691406 302.320312 238.972656 304.449219 240.363281 306.515625 C 241.753906 308.578125 243.238281 310.570312 244.828125 312.488281 C 246.414062 314.40625 248.089844 316.238281 249.859375 317.988281 C 254.691406 322.257812 259.933594 325.9375 265.589844 329.027344 Z M 265.589844 329.027344 " fill-opacity="1" fill-rule="nonzero"/><path fill="#000000" d="M 325.476562 290.964844 C 326.308594 290.964844 327.132812 290.882812 327.949219 290.722656 C 328.769531 290.558594 329.5625 290.320312 330.332031 290 C 331.101562 289.679688 331.832031 289.289062 332.523438 288.828125 C 333.21875 288.363281 333.859375 287.839844 334.445312 287.25 C 335.035156 286.660156 335.5625 286.019531 336.023438 285.328125 C 336.488281 284.632812 336.878906 283.902344 337.199219 283.132812 C 337.515625 282.363281 337.757812 281.570312 337.917969 280.753906 C 338.082031 279.9375 338.164062 279.109375 338.164062 278.277344 L 338.164062 126.027344 C 338.164062 125.195312 338.082031 124.371094 337.917969 123.554688 C 337.757812 122.734375 337.515625 121.941406 337.199219 121.171875 C 336.878906 120.402344 336.488281 119.671875 336.023438 118.980469 C 335.5625 118.285156 335.035156 117.644531 334.445312 117.058594 C 333.859375 116.46875 333.21875 115.941406 332.523438 115.480469 C 331.832031 115.015625 331.101562 114.625 330.332031 114.304688 C 329.5625 113.988281 328.769531 113.746094 327.949219 113.585938 C 327.132812 113.421875 326.308594 113.339844 325.476562 113.339844 C 324.640625 113.339844 323.816406 113.421875 323 113.585938 C 322.183594 113.746094 321.390625 113.988281 320.621094 114.304688 C 319.851562 114.625 319.121094 115.015625 318.425781 115.480469 C 317.734375 115.941406 317.09375 116.46875 316.503906 117.058594 C 315.914062 117.644531 315.390625 118.285156 314.925781 118.980469 C 314.464844 119.671875 314.074219 120.402344 313.753906 121.171875 C 313.433594 121.941406 313.195312 122.734375 313.03125 123.554688 C 312.871094 124.371094 312.789062 125.195312 312.789062 126.027344 L 312.789062 278.277344 C 312.789062 279.109375 312.871094 279.9375 313.03125 280.753906 C 313.195312 281.570312 313.433594 282.363281 313.753906 283.132812 C 314.074219 283.902344 314.464844 284.632812 314.925781 285.328125 C 315.390625 286.019531 315.914062 286.660156 316.503906 287.25 C 317.09375 287.839844 317.734375 288.363281 318.425781 288.828125 C 319.121094 289.289062 319.851562 289.679688 320.621094 290 C 321.390625 290.320312 322.183594 290.558594 323 290.722656 C 323.816406 290.882812 324.640625 290.964844 325.476562 290.964844 Z M 325.476562 290.964844 " fill-opacity="1" fill-rule="nonzero"/><path fill="#000000" d="M 281.957031 290.964844 C 282.789062 290.964844 283.617188 290.882812 284.433594 290.722656 C 285.25 290.558594 286.042969 290.320312 286.8125 290 C 287.582031 289.679688 288.3125 289.289062 289.007812 288.828125 C 289.699219 288.363281 290.339844 287.839844 290.929688 287.25 C 291.519531 286.660156 292.042969 286.019531 292.507812 285.328125 C 292.96875 284.632812 293.359375 283.902344 293.679688 283.132812 C 293.996094 282.363281 294.238281 281.570312 294.402344 280.753906 C 294.5625 279.9375 294.644531 279.109375 294.644531 278.277344 L 294.644531 126.027344 C 294.644531 125.195312 294.5625 124.371094 294.402344 123.554688 C 294.238281 122.734375 293.996094 121.941406 293.679688 121.171875 C 293.359375 120.402344 292.96875 119.671875 292.507812 118.980469 C 292.042969 118.285156 291.519531 117.644531 290.929688 117.058594 C 290.339844 116.46875 289.699219 115.941406 289.007812 115.480469 C 288.3125 115.015625 287.582031 114.625 286.8125 114.304688 C 286.042969 113.988281 285.25 113.746094 284.433594 113.585938 C 283.617188 113.421875 282.789062 113.339844 281.957031 113.339844 C 281.125 113.339844 280.300781 113.421875 279.480469 113.585938 C 278.664062 113.746094 277.871094 113.988281 277.101562 114.304688 C 276.332031 114.625 275.601562 115.015625 274.910156 115.480469 C 274.214844 115.941406 273.574219 116.46875 272.984375 117.058594 C 272.398438 117.644531 271.871094 118.285156 271.410156 118.980469 C 270.945312 119.671875 270.554688 120.402344 270.234375 121.171875 C 269.917969 121.941406 269.675781 122.734375 269.515625 123.554688 C 269.351562 124.371094 269.269531 125.195312 269.269531 126.027344 L 269.269531 278.277344 C 269.269531 279.109375 269.351562 279.9375 269.515625 280.753906 C 269.675781 281.570312 269.917969 282.363281 270.234375 283.132812 C 270.554688 283.902344 270.945312 284.632812 271.410156 285.328125 C 271.871094 286.019531 272.398438 286.660156 272.984375 287.25 C 273.574219 287.839844 274.214844 288.363281 274.910156 288.828125 C 275.601562 289.289062 276.332031 289.679688 277.101562 290 C 277.871094 290.320312 278.664062 290.558594 279.480469 290.722656 C 280.300781 290.882812 281.125 290.964844 281.957031 290.964844 Z M 281.957031 290.964844 " fill-opacity="1" fill-rule="nonzero"/><path fill="#000000" d="M 481.277344 332.835938 L 481.277344 682.628906 C 481.277344 683.875 481.339844 685.117188 481.460938 686.359375 C 481.582031 687.601562 481.765625 688.832031 482.007812 690.054688 C 482.253906 691.277344 482.554688 692.484375 482.917969 693.675781 C 483.277344 694.871094 483.699219 696.042969 484.175781 697.195312 C 484.652344 698.347656 485.183594 699.472656 485.773438 700.570312 C 486.359375 701.671875 487 702.738281 487.691406 703.773438 C 488.386719 704.8125 489.128906 705.8125 489.917969 706.773438 C 490.707031 707.738281 491.542969 708.660156 492.425781 709.542969 C 493.308594 710.425781 494.230469 711.261719 495.195312 712.050781 C 496.15625 712.84375 497.15625 713.582031 498.195312 714.277344 C 499.230469 714.96875 500.296875 715.609375 501.398438 716.195312 C 502.496094 716.785156 503.621094 717.316406 504.773438 717.792969 C 505.925781 718.269531 507.097656 718.691406 508.292969 719.050781 C 509.484375 719.414062 510.691406 719.714844 511.914062 719.960938 C 513.136719 720.203125 514.371094 720.386719 515.609375 720.507812 C 516.851562 720.628906 518.09375 720.691406 519.339844 720.691406 C 520.585938 720.691406 521.832031 720.628906 523.070312 720.507812 C 524.3125 720.386719 525.542969 720.203125 526.765625 719.960938 C 527.988281 719.714844 529.195312 719.414062 530.390625 719.050781 C 531.582031 718.691406 532.753906 718.269531 533.90625 717.792969 C 535.058594 717.316406 536.183594 716.785156 537.28125 716.195312 C 538.382812 715.609375 539.449219 714.96875 540.488281 714.277344 C 541.523438 713.582031 542.523438 712.84375 543.488281 712.050781 C 544.449219 711.261719 545.375 710.425781 546.253906 709.542969 C 547.136719 708.660156 547.972656 707.738281 548.761719 706.773438 C 549.554688 705.8125 550.296875 704.8125 550.988281 703.773438 C 551.679688 702.738281 552.320312 701.671875 552.910156 700.570312 C 553.496094 699.472656 554.027344 698.347656 554.503906 697.195312 C 554.984375 696.042969 555.402344 694.871094 555.765625 693.675781 C 556.125 692.484375 556.429688 691.277344 556.671875 690.054688 C 556.914062 688.832031 557.097656 687.601562 557.21875 686.359375 C 557.34375 685.117188 557.402344 683.875 557.402344 682.628906 L 557.402344 332.835938 C 590.011719 316.339844 601.808594 278.277344 601.808594 247.828125 C 601.808594 182.867188 568.695312 113.339844 519.339844 113.339844 C 469.984375 113.339844 436.871094 182.867188 436.871094 247.828125 C 436.871094 278.277344 448.671875 316.339844 481.277344 332.835938 Z M 519.339844 138.714844 C 549.15625 138.714844 576.433594 190.734375 576.433594 247.828125 C 576.433594 273.203125 566.917969 302.890625 540.273438 312.660156 C 539.671875 312.886719 539.089844 313.15625 538.527344 313.472656 C 537.964844 313.785156 537.429688 314.140625 536.917969 314.535156 C 536.410156 314.933594 535.9375 315.363281 535.492188 315.832031 C 535.050781 316.300781 534.644531 316.800781 534.28125 317.332031 C 533.914062 317.859375 533.589844 318.414062 533.308594 318.996094 C 533.023438 319.574219 532.789062 320.171875 532.597656 320.785156 C 532.40625 321.402344 532.265625 322.027344 532.167969 322.664062 C 532.074219 323.300781 532.027344 323.941406 532.027344 324.585938 L 532.027344 682.628906 C 532.027344 683.460938 531.945312 684.285156 531.785156 685.105469 C 531.621094 685.921875 531.382812 686.714844 531.0625 687.484375 C 530.742188 688.253906 530.351562 688.984375 529.890625 689.675781 C 529.425781 690.371094 528.902344 691.011719 528.3125 691.601562 C 527.722656 692.1875 527.082031 692.714844 526.390625 693.179688 C 525.695312 693.640625 524.964844 694.03125 524.195312 694.351562 C 523.425781 694.667969 522.632812 694.910156 521.816406 695.074219 C 521 695.234375 520.171875 695.316406 519.339844 695.316406 C 518.507812 695.316406 517.683594 695.234375 516.867188 695.074219 C 516.046875 694.910156 515.253906 694.667969 514.484375 694.351562 C 513.714844 694.03125 512.984375 693.640625 512.292969 693.179688 C 511.597656 692.714844 510.957031 692.1875 510.371094 691.601562 C 509.78125 691.011719 509.253906 690.371094 508.792969 689.675781 C 508.328125 688.984375 507.9375 688.253906 507.617188 687.484375 C 507.300781 686.714844 507.058594 685.921875 506.898438 685.105469 C 506.734375 684.285156 506.652344 683.460938 506.652344 682.628906 L 506.652344 324.585938 C 506.65625 323.941406 506.609375 323.300781 506.511719 322.664062 C 506.417969 322.027344 506.273438 321.402344 506.082031 320.785156 C 505.890625 320.171875 505.65625 319.574219 505.375 318.996094 C 505.09375 318.414062 504.769531 317.859375 504.402344 317.332031 C 504.035156 316.800781 503.628906 316.300781 503.1875 315.832031 C 502.746094 315.363281 502.269531 314.933594 501.761719 314.535156 C 501.253906 314.140625 500.71875 313.785156 500.15625 313.472656 C 499.59375 313.15625 499.011719 312.886719 498.40625 312.660156 C 471.761719 302.890625 462.246094 272.695312 462.246094 247.828125 C 462.246094 190.734375 489.523438 138.714844 519.339844 138.714844 Z M 519.339844 138.714844 " fill-opacity="1" fill-rule="nonzero"/><g clip-path="url(#8d52a3dc8b)"><g clip-path="url(#fb6e44f849)"><path fill="#000000" d="M 486.570312 454.625 L 501.402344 454.625 L 501.402344 503.695312 L 486.570312 503.695312 Z M 486.570312 454.625 " fill-opacity="1" fill-rule="nonzero"/></g></g></svg>