<svg xmlns="http://www.w3.org/2000/svg" xmlns:xlink="http://www.w3.org/1999/xlink" width="1080" zoomAndPan="magnify" viewBox="0 0 810 809.999993" height="1080" preserveAspectRatio="xMidYMid meet" version="1.0"><defs><clipPath id="bbebabb2a9"><path d="M 352 87 L 746.789062 87 L 746.789062 640 L 352 640 Z M 352 87 " clip-rule="nonzero"/></clipPath><clipPath id="24e338cb21"><path d="M 75 256 L 325 256 L 325 797.953125 L 75 797.953125 Z M 75 256 " clip-rule="nonzero"/></clipPath><clipPath id="94dba3ec26"><path d="M 383 446 L 465 446 L 465 511 L 383 511 Z M 383 446 " clip-rule="nonzero"/></clipPath><clipPath id="ba9d069b02"><path d="M 408.511719 432.800781 L 465.851562 458.902344 L 436.640625 523.066406 L 379.304688 496.964844 Z M 408.511719 432.800781 " clip-rule="nonzero"/></clipPath><clipPath id="8f4f93c1cc"><path d="M 408.511719 432.800781 L 465.851562 458.902344 L 436.640625 523.066406 L 379.304688 496.964844 Z M 408.511719 432.800781 " clip-rule="nonzero"/></clipPath></defs><g clip-path="url(#bbebabb2a9)"><path fill="#1c191a" d="M 489.054688 87.800781 L 449.640625 420.335938 C 445.425781 419.648438 441.101562 419.339844 436.609375 419.464844 C 427.777344 419.660156 418.761719 421.402344 409.84375 424.632812 C 371.90625 438.316406 347.144531 474.171875 353.457031 506.246094 C 358.246094 530.746094 380.527344 547.195312 408.875 547.195312 C 409.476562 547.195312 410.078125 547.195312 410.65625 547.183594 C 419.5 546.972656 428.527344 545.230469 437.46875 542.003906 C 468.039062 530.96875 491.066406 504.945312 494.8125 477.007812 L 525.898438 214.351562 L 685.117188 298.960938 L 659.863281 512.382812 C 655.761719 511.746094 651.414062 511.464844 647.210938 511.574219 C 638.394531 511.78125 629.390625 513.511719 620.460938 516.730469 C 582.558594 530.414062 557.785156 566.269531 564.074219 598.394531 C 568.886719 622.878906 591.15625 639.328125 619.503906 639.328125 C 620.09375 639.328125 620.683594 639.316406 621.285156 639.304688 C 630.128906 639.097656 639.144531 637.351562 648.097656 634.113281 C 678.617188 623.101562 701.488281 597.203125 705.011719 569.558594 L 746.578125 218.699219 L 489.054688 87.800781 " fill-opacity="1" fill-rule="nonzero"/></g><g clip-path="url(#24e338cb21)"><path fill="#1c191a" d="M 264.507812 358.347656 C 259.117188 354.101562 253.28125 350.027344 246.636719 345.839844 C 243.640625 343.960938 240.605469 342.171875 237.660156 340.511719 C 234.195312 338.5625 231.0625 336.941406 228.152344 335.46875 C 224.492188 333.640625 220.894531 331.894531 217.355469 330.191406 C 209.902344 326.59375 202.863281 323.21875 196.785156 319.523438 C 188.738281 314.722656 182.855469 309.457031 179.28125 303.847656 C 178.261719 302.253906 176.113281 297.808594 174.378906 294.25 L 171.554688 288.492188 C 168.941406 283.140625 165.96875 277.089844 160.011719 269.160156 C 154.066406 261.28125 145.097656 256.761719 135.445312 256.761719 C 131.636719 256.761719 127.867188 257.460938 124.332031 258.824219 C 122.953125 259.339844 121.589844 259.964844 120.226562 260.703125 C 106.25 268.3125 98.625 284.945312 101.707031 301.171875 L 173.359375 616.167969 C 166.015625 617 158.585938 618.855469 151.191406 621.679688 C 140.273438 625.863281 129.796875 632.027344 120.066406 640.015625 C 78.738281 673.957031 63.472656 729.460938 85.347656 766.398438 C 96.917969 785.890625 117.328125 797.082031 141.339844 797.082031 C 151.660156 797.082031 162.222656 795.046875 172.722656 791.019531 C 183.679688 786.835938 194.167969 780.648438 203.933594 772.644531 C 237.253906 745.222656 254.449219 702.753906 246.675781 666.789062 L 183.480469 389.023438 C 186.808594 390.226562 190.078125 391.34375 193.308594 392.460938 C 196.710938 393.636719 200.050781 394.78125 203.023438 395.859375 L 210.820312 398.890625 C 213.820312 400.167969 216.117188 401.1875 218.128906 402.167969 C 222.894531 404.425781 227.539062 406.929688 231.996094 409.644531 C 251.339844 421.316406 265.085938 436.328125 272.933594 454.433594 C 281.433594 473.410156 283.535156 497.984375 278.839844 523.761719 C 277.109375 533.605469 282.734375 543.167969 291.945312 546.015625 C 295.902344 547.21875 300.152344 547.097656 304.179688 545.574219 C 309.988281 543.339844 314.351562 538.542969 316.144531 532.476562 C 326.398438 498.441406 327.050781 463.605469 317.984375 434.488281 C 309.082031 405.371094 290.609375 379.066406 264.507812 358.347656 " fill-opacity="1" fill-rule="nonzero"/></g><path fill="#1c191a" d="M 395.585938 84.941406 C 393.65625 81.96875 391.496094 79.011719 388.964844 75.882812 C 387.808594 74.46875 386.632812 73.082031 385.476562 71.78125 C 384.113281 70.261719 382.859375 68.945312 381.679688 67.742188 C 380.207031 66.257812 378.734375 64.808594 377.308594 63.398438 C 374.273438 60.402344 371.402344 57.582031 369.054688 54.769531 C 365.949219 51.085938 363.957031 47.550781 363.148438 44.226562 C 362.914062 43.28125 362.605469 40.765625 362.359375 38.738281 L 361.929688 35.460938 C 361.550781 32.429688 361.109375 28.980469 359.535156 24.132812 C 357.953125 19.296875 354.339844 15.613281 349.625 14.003906 C 347.769531 13.378906 345.828125 13.097656 343.863281 13.15625 C 343.113281 13.183594 342.351562 13.257812 341.566406 13.402344 C 333.484375 14.777344 327 21.617188 325.808594 30.023438 L 308.28125 195.351562 C 304.5625 194.542969 300.644531 194.210938 296.566406 194.359375 C 290.546875 194.578125 284.429688 195.84375 278.363281 198.125 C 252.570312 207.773438 235.902344 232.273438 240.410156 253.890625 C 242.792969 265.316406 250.875 274.15625 262.578125 278.144531 C 267.589844 279.851562 273.082031 280.625 278.867188 280.414062 C 284.898438 280.195312 291.039062 278.917969 297.128906 276.648438 C 317.925781 268.828125 333.363281 251.019531 335.5625 232.1875 L 351.011719 86.414062 C 352.4375 87.542969 353.835938 88.636719 355.226562 89.714844 C 356.699219 90.855469 358.125 91.960938 359.390625 92.992188 L 362.679688 95.765625 C 363.933594 96.882812 364.878906 97.753906 365.703125 98.566406 C 367.65625 100.457031 369.496094 102.445312 371.21875 104.507812 C 378.683594 113.417969 382.886719 123.003906 383.695312 133.144531 C 384.679688 143.785156 381.609375 156.109375 375.023438 167.882812 C 372.554688 172.386719 373.699219 177.984375 377.703125 180.890625 C 379.433594 182.144531 381.535156 182.792969 383.746094 182.722656 C 386.949219 182.597656 389.875 180.976562 391.753906 178.328125 C 402.414062 163.449219 408.519531 146.597656 408.960938 130.910156 C 409.464844 115.246094 404.847656 99.375 395.585938 84.941406 " fill-opacity="1" fill-rule="nonzero"/><g clip-path="url(#94dba3ec26)"><g clip-path="url(#ba9d069b02)"><g clip-path="url(#8f4f93c1cc)"><path fill="#1c191a" d="M 444.125 503.792969 L 464.78125 458.414062 L 422.773438 446.761719 L 403.355469 489.421875 C 401.472656 487.960938 398.914062 486.878906 395.972656 486.53125 C 389.671875 485.78125 384.148438 488.59375 383.648438 492.8125 C 383.148438 497.039062 387.855469 501.066406 394.160156 501.820312 C 400.460938 502.566406 404.929688 498.949219 406.484375 495.535156 L 423.558594 458.03125 L 455.019531 466.867188 L 440.992188 497.6875 C 439.109375 496.222656 436.550781 495.144531 433.609375 494.792969 C 427.308594 494.046875 421.78125 496.859375 421.285156 501.078125 C 420.785156 505.304688 425.492188 509.332031 431.796875 510.082031 C 438.097656 510.828125 442.566406 507.214844 444.125 503.792969 Z M 444.125 503.792969 " fill-opacity="1" fill-rule="nonzero"/></g></g></g></svg>