<svg xmlns="http://www.w3.org/2000/svg" xmlns:xlink="http://www.w3.org/1999/xlink" width="1080" zoomAndPan="magnify" viewBox="0 0 810 809.999993" height="1080" preserveAspectRatio="xMidYMid meet" version="1.0"><defs><clipPath id="132fce9300"><path d="M 14.566406 521 L 379 521 L 379 544 L 14.566406 544 Z M 14.566406 521 " clip-rule="nonzero"/></clipPath><clipPath id="f067c35b48"><path d="M 567 559.015625 L 576 559.015625 L 576 568 L 567 568 Z M 567 559.015625 " clip-rule="nonzero"/></clipPath><clipPath id="e7c5821ed0"><path d="M 567 559.015625 L 576 559.015625 L 576 568.015625 L 567 568.015625 Z M 567 559.015625 " clip-rule="nonzero"/></clipPath></defs><g clip-path="url(#132fce9300)"><path fill="#000000" d="M 367.792969 543.085938 L 25.339844 543.085938 C 19.414062 543.085938 14.613281 538.285156 14.613281 532.359375 C 14.613281 526.4375 19.414062 521.636719 25.339844 521.636719 L 367.792969 521.636719 C 373.71875 521.636719 378.519531 526.4375 378.519531 532.359375 C 378.519531 538.273438 373.71875 543.085938 367.792969 543.085938 Z M 367.792969 543.085938 " fill-opacity="1" fill-rule="nonzero"/></g><path fill="#000000" d="M 470.261719 543.085938 L 414.0625 543.085938 C 408.136719 543.085938 403.335938 538.285156 403.335938 532.359375 C 403.335938 526.4375 408.136719 521.636719 414.0625 521.636719 L 470.261719 521.636719 C 476.1875 521.636719 480.988281 526.4375 480.988281 532.359375 C 480.988281 538.273438 476.1875 543.085938 470.261719 543.085938 Z M 470.261719 543.085938 " fill-opacity="1" fill-rule="nonzero"/><path fill="#000000" d="M 148.03125 471.585938 C 79.21875 471.585938 23.230469 415.609375 23.230469 346.8125 C 23.230469 278.019531 79.21875 222.042969 148.03125 222.042969 C 216.84375 222.042969 272.832031 278.019531 272.832031 346.8125 C 272.832031 415.609375 216.855469 471.585938 148.03125 471.585938 Z M 148.03125 243.492188 C 91.046875 243.492188 44.6875 289.84375 44.6875 346.8125 C 44.6875 403.785156 91.046875 450.136719 148.03125 450.136719 C 205.015625 450.136719 251.378906 403.785156 251.378906 346.8125 C 251.378906 289.84375 205.015625 243.492188 148.03125 243.492188 Z M 148.03125 243.492188 " fill-opacity="1" fill-rule="nonzero"/><path fill="#000000" d="M 148.03125 543.085938 C 142.105469 543.085938 137.304688 538.285156 137.304688 532.359375 L 137.304688 331.839844 C 137.304688 325.914062 142.105469 321.113281 148.03125 321.113281 C 153.957031 321.113281 158.757812 325.914062 158.757812 331.839844 L 158.757812 532.347656 C 158.769531 538.273438 153.957031 543.085938 148.03125 543.085938 Z M 148.03125 543.085938 " fill-opacity="1" fill-rule="nonzero"/><path fill="#000000" d="M 148.03125 425.128906 C 145.292969 425.128906 142.539062 424.085938 140.445312 421.988281 C 136.25 417.796875 136.25 411.007812 140.445312 406.816406 L 179.382812 367.898438 C 183.574219 363.707031 190.367188 363.707031 194.558594 367.898438 C 198.75 372.089844 198.75 378.882812 194.558594 383.074219 L 155.621094 421.988281 C 153.523438 424.085938 150.785156 425.128906 148.03125 425.128906 Z M 148.03125 425.128906 " fill-opacity="1" fill-rule="nonzero"/><path fill="#000000" d="M 148.03125 386.210938 C 145.292969 386.210938 142.539062 385.167969 140.445312 383.074219 L 115.078125 357.714844 C 110.886719 353.523438 110.886719 346.730469 115.078125 342.539062 C 119.269531 338.347656 126.0625 338.347656 130.253906 342.539062 L 155.621094 367.898438 C 159.8125 372.089844 159.8125 378.882812 155.621094 383.074219 C 153.523438 385.15625 150.785156 386.210938 148.03125 386.210938 Z M 148.03125 386.210938 " fill-opacity="1" fill-rule="nonzero"/><path fill="#000000" d="M 337.570312 471.597656 C 295.890625 471.597656 257.140625 450.921875 233.90625 416.277344 C 230.605469 411.359375 231.914062 404.6875 236.847656 401.382812 C 241.777344 398.082031 248.429688 399.394531 251.742188 404.324219 C 270.996094 433.007812 303.082031 450.136719 337.582031 450.136719 C 394.566406 450.136719 440.914062 403.785156 440.914062 346.824219 C 440.914062 284.328125 390.957031 146.773438 337.582031 146.773438 C 300.878906 146.773438 264.566406 214.375 246.355469 277.1875 C 244.703125 282.878906 238.742188 286.144531 233.0625 284.503906 C 227.371094 282.855469 224.09375 276.90625 225.746094 271.214844 C 246.191406 200.6875 286.3125 125.3125 337.582031 125.3125 C 409.683594 125.3125 462.382812 280.746094 462.382812 346.8125 C 462.359375 415.621094 406.382812 471.597656 337.570312 471.597656 Z M 337.570312 471.597656 " fill-opacity="1" fill-rule="nonzero"/><path fill="#000000" d="M 337.558594 543.085938 C 331.632812 543.085938 326.832031 538.285156 326.832031 532.359375 L 326.832031 236.691406 C 326.832031 230.765625 331.632812 225.964844 337.558594 225.964844 C 343.484375 225.964844 348.285156 230.765625 348.285156 236.691406 L 348.285156 532.347656 C 348.285156 538.273438 343.484375 543.085938 337.558594 543.085938 Z M 337.558594 543.085938 " fill-opacity="1" fill-rule="nonzero"/><path fill="#000000" d="M 335.273438 399.769531 C 332.535156 399.769531 329.78125 398.726562 327.683594 396.632812 L 288.757812 357.703125 C 284.566406 353.511719 284.566406 346.71875 288.757812 342.527344 C 292.953125 338.335938 299.742188 338.335938 303.9375 342.527344 L 342.863281 381.457031 C 347.054688 385.648438 347.054688 392.441406 342.863281 396.632812 C 340.765625 398.726562 338.015625 399.769531 335.273438 399.769531 Z M 335.273438 399.769531 " fill-opacity="1" fill-rule="nonzero"/><path fill="#000000" d="M 338.4375 334.53125 C 335.695312 334.53125 332.945312 333.492188 330.847656 331.394531 C 326.65625 327.203125 326.65625 320.414062 330.847656 316.222656 L 356.210938 290.863281 C 360.394531 286.671875 367.199219 286.671875 371.390625 290.863281 C 375.582031 295.054688 375.582031 301.84375 371.390625 306.035156 L 346.023438 331.394531 C 343.929688 333.492188 341.1875 334.53125 338.4375 334.53125 Z M 338.4375 334.53125 " fill-opacity="1" fill-rule="nonzero"/><path fill="#000000" d="M 275.890625 678.066406 C 275.609375 678.066406 275.316406 678.054688 275.023438 678.03125 C 100.113281 664.097656 100.113281 637.214844 100.113281 627.101562 C 100.113281 613.074219 112.386719 596.976562 203.386719 583.921875 C 264.554688 575.152344 345.753906 570.328125 432.039062 570.328125 C 453.515625 570.328125 475.472656 570.644531 497.28125 571.277344 C 503.203125 571.453125 507.867188 576.382812 507.691406 582.304688 C 507.515625 588.230469 502.667969 592.84375 496.660156 592.714844 C 475.050781 592.09375 453.304688 591.765625 432.039062 591.765625 C 253.148438 591.765625 138.769531 612.066406 122.597656 627.019531 C 130.453125 633.492188 168.257812 647.988281 276.722656 656.628906 C 282.621094 657.097656 287.039062 662.269531 286.570312 668.171875 C 286.125 673.804688 281.429688 678.066406 275.890625 678.066406 Z M 275.890625 678.066406 " fill-opacity="1" fill-rule="nonzero"/><path fill="#000000" d="M 634.539062 673.535156 C 629.164062 673.535156 624.527344 669.507812 623.894531 664.039062 C 623.214844 658.148438 627.429688 652.835938 633.320312 652.144531 C 713.996094 642.8125 735.859375 631.152344 741.246094 627.066406 C 736.890625 623.691406 721.609375 615.414062 671.03125 607.21875 C 665.832031 606.472656 661.800781 602.011719 661.800781 596.601562 C 661.800781 590.675781 666.570312 585.875 672.496094 585.875 L 674.273438 586.015625 C 753.320312 598.789062 763.976562 613.953125 763.976562 627.101562 C 763.976562 636.535156 763.976562 658.617188 635.78125 673.464844 C 635.371094 673.511719 634.949219 673.535156 634.539062 673.535156 Z M 634.539062 673.535156 " fill-opacity="1" fill-rule="nonzero"/><path fill="#000000" d="M 464.582031 720.867188 C 408.289062 720.867188 355.3125 717.71875 315.390625 711.992188 C 253.523438 703.132812 244.996094 691.457031 244.996094 680.183594 C 244.996094 667.164062 259.832031 660.996094 272.761719 657.074219 C 278.453125 655.339844 284.425781 658.546875 286.148438 664.214844 C 287.871094 669.878906 284.671875 675.875 279.003906 677.597656 C 275.761719 678.578125 273.265625 679.480469 271.34375 680.277344 C 291.101562 688.332031 355.230469 699.40625 464.582031 699.40625 C 573.972656 699.40625 638.089844 688.320312 657.796875 680.265625 C 653.300781 678.414062 645.558594 675.933594 632.457031 673.324219 C 626.648438 672.164062 622.875 666.507812 624.035156 660.703125 C 625.195312 654.894531 630.839844 651.125 636.660156 652.285156 C 670.363281 659.003906 684.109375 667.09375 684.109375 680.183594 C 684.109375 691.457031 675.585938 703.132812 613.753906 711.992188 C 573.84375 717.71875 520.863281 720.867188 464.582031 720.867188 Z M 663.675781 683.496094 L 663.734375 683.496094 Z M 663.675781 683.496094 " fill-opacity="1" fill-rule="nonzero"/><path fill="#000000" d="M 673.019531 607.335938 L 672.632812 607.335938 C 666.710938 607.335938 661.835938 602.539062 661.835938 596.613281 C 661.835938 590.792969 666.40625 586.050781 672.191406 585.886719 C 690.445312 584.578125 703.597656 582.796875 712.800781 581.066406 C 694.3125 577.644531 662.480469 574.402344 618.25 574.402344 C 554.800781 574.402344 516.871094 581.066406 507.175781 585.363281 C 506.308594 587.960938 504.457031 590.242188 501.824219 591.578125 C 496.542969 594.25 490.078125 592.128906 487.40625 586.835938 C 486.515625 585.082031 486.050781 583.078125 486.050781 581.054688 C 486.050781 567.355469 503.953125 561.992188 530.832031 558.140625 C 554.261719 554.792969 585.308594 552.941406 618.25 552.941406 C 651.191406 552.941406 682.226562 554.792969 705.636719 558.140625 C 732.5 561.980469 750.382812 567.355469 750.382812 581.054688 C 750.382812 591.097656 744.433594 602.234375 673.382812 607.3125 Z M 673.019531 607.335938 " fill-opacity="1" fill-rule="nonzero"/><path fill="#000000" d="M 669.683594 226.316406 C 667.316406 226.316406 664.941406 225.542969 662.960938 223.941406 L 525.980469 113.652344 C 524.132812 112.164062 521.578125 111.90625 519.460938 112.984375 L 431.359375 158.09375 C 426.089844 160.789062 419.613281 158.703125 416.921875 153.433594 C 414.214844 148.167969 416.300781 141.703125 421.582031 139 L 509.679688 93.890625 C 519.320312 88.960938 530.996094 90.152344 539.4375 96.945312 L 676.417969 207.234375 C 681.03125 210.945312 681.757812 217.699219 678.046875 222.3125 C 675.925781 224.945312 672.808594 226.316406 669.683594 226.316406 Z M 669.683594 226.316406 " fill-opacity="1" fill-rule="nonzero"/><path fill="#000000" d="M 578.480469 271.015625 C 574.242188 271.015625 570.226562 268.488281 568.539062 264.320312 C 566.3125 258.828125 568.949219 252.578125 574.441406 250.339844 L 712.089844 194.4375 C 718.914062 191.660156 726.808594 192.691406 732.699219 197.128906 L 789.71875 240.085938 C 794.449219 243.644531 795.398438 250.375 791.824219 255.105469 C 788.253906 259.835938 781.519531 260.785156 776.800781 257.214844 L 719.78125 214.246094 L 582.53125 270.199219 C 581.199219 270.757812 579.828125 271.015625 578.480469 271.015625 Z M 578.480469 271.015625 " fill-opacity="1" fill-rule="nonzero"/><g clip-path="url(#f067c35b48)"><path fill="#ff0000" d="M 575.890625 563.589844 C 575.84375 563.667969 575.761719 563.714844 575.679688 563.761719 C 575.714844 563.8125 575.714844 563.875 575.699219 563.933594 C 575.683594 563.992188 575.65625 564.046875 575.640625 564.105469 C 575.625 564.164062 575.628906 564.238281 575.664062 564.289062 C 575.617188 564.289062 575.578125 564.328125 575.558594 564.371094 C 575.539062 564.414062 575.535156 564.460938 575.53125 564.507812 C 575.527344 564.550781 575.523438 564.601562 575.5 564.640625 C 575.566406 564.667969 575.636719 564.695312 575.683594 564.75 C 575.695312 564.765625 575.707031 564.78125 575.714844 564.800781 C 575.730469 564.847656 575.722656 564.898438 575.707031 564.941406 C 575.6875 564.984375 575.660156 565.023438 575.628906 565.0625 C 575.667969 565.097656 575.726562 565.140625 575.746094 565.191406 C 575.753906 565.222656 575.757812 565.257812 575.761719 565.289062 C 575.777344 565.40625 575.839844 565.519531 575.835938 565.636719 C 575.835938 565.652344 575.828125 565.660156 575.816406 565.667969 C 575.804688 565.671875 575.792969 565.675781 575.785156 565.683594 C 575.746094 565.699219 575.726562 565.742188 575.71875 565.785156 C 575.710938 565.824219 575.714844 565.867188 575.703125 565.90625 C 575.6875 565.992188 575.625 566.058594 575.566406 566.125 C 575.597656 566.160156 575.628906 566.199219 575.644531 566.246094 C 575.664062 566.289062 575.664062 566.34375 575.640625 566.382812 C 575.609375 566.433594 575.53125 566.457031 575.476562 566.472656 C 575.519531 566.511719 575.5625 566.558594 575.570312 566.617188 C 575.578125 566.65625 575.5625 566.699219 575.570312 566.738281 C 575.574219 566.773438 575.589844 566.804688 575.613281 566.832031 C 575.636719 566.859375 575.664062 566.878906 575.691406 566.902344 C 575.640625 566.976562 575.648438 567.082031 575.671875 567.167969 C 575.691406 567.253906 575.734375 567.332031 575.757812 567.417969 C 575.785156 567.53125 575.785156 567.648438 575.75 567.757812 C 575.605469 567.789062 575.433594 567.792969 575.289062 567.742188 C 575.222656 567.71875 575.160156 567.6875 575.09375 567.671875 C 575.023438 567.660156 574.941406 567.660156 574.886719 567.703125 C 574.863281 567.660156 574.824219 567.628906 574.777344 567.609375 C 574.726562 567.589844 574.667969 567.589844 574.609375 567.578125 C 574.554688 567.570312 574.492188 567.546875 574.460938 567.5 C 574.449219 567.558594 574.421875 567.613281 574.382812 567.660156 C 574.367188 567.675781 574.351562 567.691406 574.328125 567.695312 C 574.3125 567.699219 574.296875 567.691406 574.28125 567.6875 C 574.222656 567.664062 574.167969 567.628906 574.117188 567.59375 C 574.085938 567.59375 574.0625 567.613281 574.039062 567.632812 C 574.019531 567.65625 574 567.679688 573.976562 567.695312 C 573.910156 567.738281 573.824219 567.707031 573.753906 567.734375 C 573.695312 567.753906 573.644531 567.808594 573.613281 567.863281 C 573.59375 567.847656 573.566406 567.839844 573.539062 567.839844 C 573.511719 567.835938 573.488281 567.835938 573.460938 567.832031 C 573.421875 567.824219 573.386719 567.800781 573.347656 567.789062 C 573.296875 567.769531 573.234375 567.773438 573.183594 567.757812 C 573.121094 567.738281 573.074219 567.691406 573.027344 567.644531 C 572.972656 567.6875 572.945312 567.695312 572.878906 567.722656 C 572.855469 567.734375 572.824219 567.742188 572.796875 567.734375 C 572.773438 567.730469 572.753906 567.714844 572.738281 567.699219 C 572.691406 567.648438 572.652344 567.585938 572.625 567.523438 C 572.550781 567.558594 572.460938 567.53125 572.386719 567.554688 C 572.332031 567.574219 572.285156 567.617188 572.265625 567.671875 C 572.226562 567.636719 572.164062 567.636719 572.113281 567.652344 C 572.0625 567.667969 572.015625 567.695312 571.964844 567.710938 C 571.894531 567.734375 571.816406 567.730469 571.75 567.699219 L 571.75 567.683594 C 571.726562 567.78125 571.660156 567.863281 571.570312 567.90625 C 571.542969 567.917969 571.515625 567.929688 571.488281 567.925781 C 571.464844 567.921875 571.445312 567.90625 571.425781 567.894531 C 571.355469 567.84375 571.296875 567.78125 571.253906 567.707031 C 571.175781 567.722656 571.09375 567.734375 571.019531 567.703125 C 570.984375 567.6875 570.949219 567.660156 570.914062 567.644531 C 570.851562 567.621094 570.78125 567.636719 570.734375 567.679688 C 570.722656 567.632812 570.683594 567.597656 570.640625 567.578125 C 570.597656 567.558594 570.550781 567.550781 570.503906 567.546875 C 570.457031 567.542969 570.410156 567.539062 570.367188 567.515625 C 570.359375 567.585938 570.332031 567.636719 570.285156 567.6875 C 570.265625 567.710938 570.246094 567.730469 570.21875 567.734375 C 570.199219 567.734375 570.179688 567.730469 570.164062 567.726562 C 570.101562 567.710938 570.042969 567.683594 569.988281 567.644531 C 569.902344 567.671875 569.851562 567.761719 569.765625 567.78125 C 569.722656 567.792969 569.679688 567.785156 569.636719 567.792969 C 569.605469 567.800781 569.574219 567.816406 569.542969 567.828125 C 569.488281 567.84375 569.421875 567.835938 569.371094 567.867188 C 569.347656 567.804688 569.28125 567.757812 569.21875 567.738281 C 569.179688 567.726562 569.140625 567.726562 569.101562 567.71875 C 569.03125 567.703125 568.949219 567.648438 568.90625 567.585938 C 568.875 567.617188 568.867188 567.621094 568.828125 567.644531 C 568.792969 567.667969 568.746094 567.679688 568.703125 567.675781 C 568.664062 567.667969 568.625 567.644531 568.601562 567.613281 C 568.574219 567.582031 568.554688 567.53125 568.546875 567.492188 C 568.515625 567.546875 568.453125 567.578125 568.390625 567.585938 C 568.347656 567.589844 568.304688 567.582031 568.261719 567.589844 C 568.203125 567.601562 568.136719 567.652344 568.113281 567.707031 C 568.0625 567.667969 567.992188 567.664062 567.925781 567.671875 C 567.820312 567.6875 567.722656 567.734375 567.621094 567.757812 C 567.503906 567.789062 567.34375 567.792969 567.25 567.757812 C 567.21875 567.648438 567.214844 567.53125 567.246094 567.421875 C 567.265625 567.335938 567.308594 567.253906 567.332031 567.167969 C 567.355469 567.082031 567.359375 566.976562 567.308594 566.902344 C 567.335938 566.878906 567.363281 566.859375 567.386719 566.832031 C 567.410156 566.804688 567.425781 566.773438 567.433594 566.738281 C 567.4375 566.699219 567.425781 566.65625 567.429688 566.617188 C 567.4375 566.558594 567.484375 566.511719 567.527344 566.472656 C 567.46875 566.457031 567.394531 566.433594 567.363281 566.382812 C 567.335938 566.34375 567.339844 566.289062 567.355469 566.246094 C 567.371094 566.199219 567.402344 566.160156 567.433594 566.125 C 567.378906 566.058594 567.3125 565.992188 567.296875 565.910156 C 567.289062 565.867188 567.289062 565.824219 567.28125 565.785156 C 567.273438 565.742188 567.253906 565.703125 567.21875 565.683594 C 567.207031 565.675781 567.195312 565.671875 567.183594 565.667969 C 567.171875 565.660156 567.164062 565.652344 567.164062 565.636719 C 567.160156 565.519531 567.222656 565.40625 567.238281 565.289062 C 567.246094 565.257812 567.246094 565.222656 567.257812 565.191406 C 567.273438 565.140625 567.332031 565.097656 567.371094 565.0625 C 567.34375 565.023438 567.3125 564.984375 567.296875 564.941406 C 567.277344 564.898438 567.269531 564.847656 567.285156 564.800781 C 567.292969 564.78125 567.304688 564.765625 567.320312 564.75 C 567.367188 564.695312 567.433594 564.667969 567.5 564.640625 L 567.503906 564.640625 C 567.480469 564.601562 567.472656 564.554688 567.46875 564.507812 C 567.464844 564.460938 567.460938 564.414062 567.441406 564.371094 C 567.425781 564.328125 567.386719 564.292969 567.339844 564.289062 C 567.371094 564.238281 567.375 564.164062 567.359375 564.105469 C 567.34375 564.046875 567.316406 563.992188 567.304688 563.933594 C 567.289062 563.875 567.285156 563.8125 567.320312 563.761719 C 567.238281 563.714844 567.160156 563.671875 567.109375 563.589844 C 567.09375 563.5625 567.078125 563.527344 567.085938 563.492188 C 567.089844 563.464844 567.105469 563.445312 567.121094 563.421875 C 567.148438 563.386719 567.179688 563.359375 567.210938 563.332031 C 567.234375 563.3125 567.257812 563.296875 567.277344 563.273438 C 567.296875 563.25 567.304688 563.21875 567.296875 563.191406 C 567.289062 563.148438 567.292969 563.09375 567.308594 563.046875 C 567.324219 563 567.359375 562.960938 567.375 562.910156 C 567.390625 562.851562 567.378906 562.785156 567.339844 562.742188 C 567.367188 562.730469 567.394531 562.71875 567.414062 562.695312 C 567.429688 562.675781 567.441406 562.652344 567.445312 562.625 C 567.464844 562.554688 567.472656 562.480469 567.476562 562.40625 C 567.480469 562.398438 567.480469 562.390625 567.476562 562.382812 C 567.472656 562.378906 567.449219 562.371094 567.445312 562.378906 C 567.363281 562.359375 567.296875 562.285156 567.28125 562.203125 C 567.265625 562.121094 567.304688 562.03125 567.375 561.984375 C 567.3125 561.945312 567.269531 561.878906 567.246094 561.8125 C 567.226562 561.742188 567.21875 561.667969 567.207031 561.597656 C 567.195312 561.527344 567.179688 561.457031 567.144531 561.394531 C 567.203125 561.351562 567.265625 561.308594 567.285156 561.242188 C 567.296875 561.191406 567.292969 561.140625 567.304688 561.089844 C 567.320312 561.023438 567.367188 560.960938 567.425781 560.925781 C 567.398438 560.886719 567.367188 560.839844 567.351562 560.792969 C 567.339844 560.746094 567.339844 560.695312 567.363281 560.652344 C 567.394531 560.601562 567.464844 560.574219 567.523438 560.558594 L 567.527344 560.558594 C 567.496094 560.539062 567.5 560.539062 567.476562 560.511719 C 567.449219 560.472656 567.441406 560.429688 567.433594 560.382812 C 567.425781 560.339844 567.421875 560.296875 567.410156 560.253906 C 567.410156 560.222656 567.394531 560.183594 567.371094 560.167969 C 567.351562 560.15625 567.332031 560.152344 567.324219 560.132812 C 567.316406 560.121094 567.320312 560.105469 567.328125 560.09375 C 567.332031 560.085938 567.34375 560.074219 567.355469 560.066406 C 567.351562 559.945312 567.304688 559.828125 567.273438 559.710938 C 567.234375 559.566406 567.21875 559.414062 567.238281 559.261719 C 567.328125 559.226562 567.507812 559.238281 567.625 559.269531 C 567.726562 559.292969 567.820312 559.339844 567.925781 559.355469 C 567.992188 559.363281 568.0625 559.359375 568.113281 559.320312 C 568.140625 559.375 568.203125 559.425781 568.261719 559.4375 C 568.304688 559.445312 568.347656 559.4375 568.390625 559.441406 C 568.453125 559.449219 568.515625 559.480469 568.550781 559.535156 C 568.554688 559.496094 568.574219 559.445312 568.601562 559.414062 C 568.625 559.382812 568.664062 559.359375 568.703125 559.351562 C 568.746094 559.347656 568.792969 559.359375 568.832031 559.382812 C 568.871094 559.402344 568.875 559.410156 568.90625 559.441406 C 568.953125 559.378906 569.03125 559.324219 569.105469 559.308594 C 569.140625 559.300781 569.179688 559.300781 569.21875 559.289062 C 569.28125 559.269531 569.347656 559.222656 569.375 559.160156 C 569.425781 559.191406 569.488281 559.183594 569.542969 559.199219 C 569.578125 559.210938 569.605469 559.226562 569.636719 559.234375 C 569.679688 559.242188 569.722656 559.234375 569.765625 559.246094 C 569.855469 559.265625 569.90625 559.355469 569.992188 559.382812 C 570.042969 559.34375 570.101562 559.316406 570.164062 559.300781 C 570.183594 559.296875 570.199219 559.292969 570.21875 559.292969 C 570.246094 559.296875 570.269531 559.316406 570.285156 559.335938 C 570.332031 559.390625 570.359375 559.441406 570.367188 559.507812 C 570.410156 559.488281 570.457031 559.484375 570.503906 559.480469 C 570.550781 559.476562 570.597656 559.46875 570.640625 559.449219 C 570.683594 559.429688 570.722656 559.394531 570.734375 559.347656 C 570.78125 559.390625 570.851562 559.40625 570.914062 559.382812 C 570.953125 559.367188 570.984375 559.339844 571.023438 559.324219 C 571.09375 559.292969 571.175781 559.308594 571.253906 559.320312 C 571.296875 559.246094 571.359375 559.183594 571.425781 559.132812 C 571.445312 559.121094 571.464844 559.105469 571.488281 559.101562 C 571.515625 559.097656 571.546875 559.109375 571.570312 559.121094 C 571.660156 559.164062 571.726562 559.246094 571.753906 559.34375 L 571.753906 559.328125 C 571.820312 559.296875 571.894531 559.292969 571.964844 559.316406 C 572.015625 559.332031 572.0625 559.359375 572.113281 559.375 C 572.164062 559.390625 572.226562 559.390625 572.265625 559.355469 C 572.285156 559.40625 572.332031 559.453125 572.386719 559.472656 C 572.464844 559.496094 572.550781 559.46875 572.625 559.503906 C 572.652344 559.441406 572.691406 559.378906 572.738281 559.328125 C 572.757812 559.3125 572.773438 559.296875 572.796875 559.292969 C 572.824219 559.285156 572.855469 559.292969 572.878906 559.304688 C 572.945312 559.332031 572.972656 559.339844 573.027344 559.382812 C 573.074219 559.335938 573.121094 559.289062 573.183594 559.269531 C 573.238281 559.253906 573.296875 559.257812 573.351562 559.238281 C 573.386719 559.226562 573.421875 559.203125 573.460938 559.195312 C 573.488281 559.191406 573.515625 559.191406 573.539062 559.1875 C 573.566406 559.1875 573.59375 559.179688 573.613281 559.164062 C 573.648438 559.214844 573.695312 559.273438 573.753906 559.292969 C 573.824219 559.320312 573.914062 559.289062 573.976562 559.332031 C 574.003906 559.347656 574.019531 559.371094 574.039062 559.394531 C 574.0625 559.414062 574.089844 559.433594 574.117188 559.433594 C 574.167969 559.398438 574.226562 559.363281 574.28125 559.339844 C 574.296875 559.335938 574.3125 559.328125 574.328125 559.332031 C 574.351562 559.335938 574.367188 559.351562 574.382812 559.367188 C 574.421875 559.414062 574.449219 559.46875 574.460938 559.527344 C 574.492188 559.480469 574.554688 559.457031 574.613281 559.449219 C 574.667969 559.4375 574.726562 559.4375 574.777344 559.417969 C 574.824219 559.398438 574.863281 559.367188 574.886719 559.324219 C 574.941406 559.367188 575.023438 559.367188 575.09375 559.351562 C 575.160156 559.339844 575.226562 559.308594 575.289062 559.285156 C 575.433594 559.234375 575.617188 559.226562 575.765625 559.261719 C 575.78125 559.414062 575.769531 559.566406 575.730469 559.710938 C 575.699219 559.828125 575.648438 559.945312 575.644531 560.066406 C 575.65625 560.074219 575.667969 560.085938 575.675781 560.09375 C 575.683594 560.105469 575.683594 560.121094 575.679688 560.132812 C 575.671875 560.152344 575.648438 560.15625 575.632812 560.167969 C 575.605469 560.183594 575.589844 560.222656 575.589844 560.253906 C 575.578125 560.296875 575.578125 560.339844 575.570312 560.382812 C 575.5625 560.429688 575.550781 560.472656 575.527344 560.511719 C 575.503906 560.539062 575.503906 560.539062 575.476562 560.558594 L 575.480469 560.558594 C 575.539062 560.574219 575.609375 560.601562 575.640625 560.652344 C 575.664062 560.695312 575.664062 560.746094 575.648438 560.792969 C 575.632812 560.839844 575.605469 560.886719 575.574219 560.925781 C 575.636719 560.960938 575.679688 561.023438 575.695312 561.089844 C 575.707031 561.140625 575.703125 561.191406 575.71875 561.242188 C 575.738281 561.308594 575.800781 561.351562 575.859375 561.394531 C 575.820312 561.457031 575.804688 561.527344 575.792969 561.597656 C 575.785156 561.667969 575.777344 561.742188 575.753906 561.808594 C 575.734375 561.878906 575.691406 561.945312 575.628906 561.984375 C 575.699219 562.03125 575.738281 562.121094 575.722656 562.203125 C 575.707031 562.285156 575.640625 562.359375 575.558594 562.378906 C 575.554688 562.371094 575.53125 562.378906 575.527344 562.382812 C 575.523438 562.390625 575.523438 562.398438 575.523438 562.40625 C 575.53125 562.480469 575.539062 562.554688 575.554688 562.625 C 575.5625 562.652344 575.570312 562.675781 575.589844 562.695312 C 575.609375 562.71875 575.636719 562.730469 575.664062 562.742188 C 575.625 562.785156 575.613281 562.851562 575.628906 562.910156 C 575.644531 562.957031 575.679688 563 575.695312 563.046875 C 575.710938 563.09375 575.710938 563.148438 575.707031 563.191406 C 575.695312 563.21875 575.707031 563.25 575.726562 563.273438 C 575.742188 563.296875 575.769531 563.3125 575.789062 563.332031 C 575.824219 563.359375 575.855469 563.386719 575.878906 563.421875 C 575.898438 563.441406 575.910156 563.464844 575.917969 563.492188 C 575.921875 563.527344 575.910156 563.5625 575.890625 563.589844 Z M 575.890625 563.589844 " fill-opacity="1" fill-rule="nonzero"/></g><g clip-path="url(#e7c5821ed0)"><path fill="#000000" d="M 567 559.015625 L 576 559.015625 L 576 568.015625 L 567 568.015625 Z M 567 559.015625 " fill-opacity="1" fill-rule="nonzero"/></g></svg>