<svg xmlns="http://www.w3.org/2000/svg" xmlns:xlink="http://www.w3.org/1999/xlink" width="1080" zoomAndPan="magnify" viewBox="0 0 810 809.999993" height="1080" preserveAspectRatio="xMidYMid meet" version="1.0"><defs><clipPath id="73f8491e22"><path d="M 642.296875 710.746094 L 651.296875 710.746094 L 651.296875 719.746094 L 642.296875 719.746094 Z M 642.296875 710.746094 " clip-rule="nonzero"/></clipPath><clipPath id="5581d3b060"><path d="M 22 47.695312 L 788 47.695312 L 788 762.445312 L 22 762.445312 Z M 22 47.695312 " clip-rule="nonzero"/></clipPath></defs><g clip-path="url(#73f8491e22)"><path fill="#ff0000" d="M 651.1875 715.324219 C 651.136719 715.402344 651.058594 715.449219 650.976562 715.492188 C 651.011719 715.542969 651.007812 715.609375 650.992188 715.667969 C 650.980469 715.726562 650.953125 715.777344 650.9375 715.835938 C 650.921875 715.894531 650.925781 715.972656 650.957031 716.019531 C 650.910156 716.023438 650.871094 716.058594 650.855469 716.101562 C 650.835938 716.144531 650.832031 716.191406 650.828125 716.238281 C 650.824219 716.285156 650.816406 716.332031 650.792969 716.371094 L 650.796875 716.371094 C 650.863281 716.398438 650.929688 716.425781 650.976562 716.480469 C 650.992188 716.496094 651.003906 716.515625 651.011719 716.535156 C 651.027344 716.578125 651.019531 716.628906 651 716.671875 C 650.984375 716.71875 650.953125 716.757812 650.925781 716.792969 C 650.960938 716.832031 651.023438 716.871094 651.039062 716.921875 C 651.050781 716.953125 651.050781 716.988281 651.058594 717.023438 C 651.074219 717.140625 651.136719 717.25 651.132812 717.371094 C 651.132812 717.382812 651.125 717.394531 651.113281 717.398438 C 651.101562 717.40625 651.089844 717.410156 651.078125 717.414062 C 651.042969 717.433594 651.023438 717.476562 651.015625 717.515625 C 651.007812 717.558594 651.007812 717.601562 651 717.640625 C 650.984375 717.722656 650.917969 717.789062 650.863281 717.855469 C 650.894531 717.894531 650.925781 717.933594 650.941406 717.976562 C 650.957031 718.023438 650.960938 718.074219 650.933594 718.117188 C 650.902344 718.167969 650.828125 718.191406 650.769531 718.203125 C 650.8125 718.246094 650.859375 718.289062 650.867188 718.347656 C 650.871094 718.390625 650.859375 718.429688 650.863281 718.46875 C 650.871094 718.503906 650.886719 718.539062 650.910156 718.5625 C 650.933594 718.589844 650.960938 718.613281 650.988281 718.636719 C 650.9375 718.707031 650.941406 718.816406 650.964844 718.898438 C 650.988281 718.984375 651.03125 719.066406 651.054688 719.152344 C 651.082031 719.261719 651.078125 719.378906 651.046875 719.488281 C 650.898438 719.523438 650.730469 719.523438 650.585938 719.472656 C 650.519531 719.453125 650.457031 719.421875 650.386719 719.40625 C 650.320312 719.390625 650.238281 719.394531 650.183594 719.4375 C 650.15625 719.394531 650.117188 719.359375 650.074219 719.34375 C 650.019531 719.320312 649.960938 719.320312 649.90625 719.3125 C 649.851562 719.304688 649.789062 719.277344 649.757812 719.230469 C 649.742188 719.289062 649.714844 719.347656 649.675781 719.390625 C 649.664062 719.410156 649.644531 719.425781 649.625 719.429688 C 649.609375 719.429688 649.59375 719.425781 649.578125 719.417969 C 649.519531 719.398438 649.464844 719.363281 649.414062 719.328125 C 649.382812 719.324219 649.355469 719.34375 649.335938 719.367188 C 649.316406 719.386719 649.296875 719.414062 649.273438 719.429688 C 649.207031 719.46875 649.121094 719.4375 649.050781 719.464844 C 648.992188 719.488281 648.941406 719.542969 648.910156 719.597656 C 648.890625 719.578125 648.863281 719.574219 648.835938 719.570312 C 648.808594 719.570312 648.78125 719.570312 648.757812 719.5625 C 648.71875 719.554688 648.683594 719.53125 648.644531 719.519531 C 648.589844 719.503906 648.53125 719.507812 648.476562 719.488281 C 648.417969 719.46875 648.371094 719.421875 648.324219 719.378906 C 648.265625 719.417969 648.242188 719.429688 648.175781 719.457031 C 648.148438 719.464844 648.121094 719.476562 648.09375 719.46875 C 648.070312 719.460938 648.050781 719.445312 648.035156 719.429688 C 647.984375 719.382812 647.945312 719.320312 647.917969 719.253906 C 647.847656 719.292969 647.757812 719.265625 647.679688 719.289062 C 647.628906 719.304688 647.578125 719.351562 647.5625 719.40625 C 647.523438 719.367188 647.460938 719.367188 647.410156 719.382812 C 647.359375 719.398438 647.3125 719.429688 647.261719 719.445312 C 647.191406 719.464844 647.113281 719.460938 647.046875 719.433594 L 647.046875 719.417969 C 647.023438 719.511719 646.953125 719.597656 646.867188 719.640625 C 646.839844 719.652344 646.8125 719.660156 646.785156 719.65625 C 646.761719 719.652344 646.742188 719.640625 646.722656 719.625 C 646.652344 719.578125 646.59375 719.511719 646.550781 719.441406 C 646.46875 719.453125 646.390625 719.464844 646.316406 719.433594 C 646.277344 719.417969 646.246094 719.390625 646.207031 719.378906 C 646.148438 719.355469 646.074219 719.371094 646.027344 719.414062 C 646.019531 719.367188 645.980469 719.328125 645.9375 719.308594 C 645.894531 719.289062 645.847656 719.285156 645.800781 719.28125 C 645.753906 719.273438 645.707031 719.269531 645.664062 719.25 C 645.65625 719.316406 645.628906 719.371094 645.582031 719.421875 C 645.5625 719.441406 645.539062 719.460938 645.511719 719.464844 C 645.496094 719.46875 645.476562 719.464844 645.460938 719.460938 C 645.398438 719.441406 645.339844 719.414062 645.285156 719.375 C 645.199219 719.40625 645.148438 719.496094 645.0625 719.515625 C 645.019531 719.523438 644.976562 719.515625 644.933594 719.523438 C 644.902344 719.53125 644.871094 719.550781 644.839844 719.558594 C 644.785156 719.574219 644.71875 719.566406 644.667969 719.597656 C 644.640625 719.539062 644.578125 719.488281 644.515625 719.46875 C 644.476562 719.460938 644.4375 719.457031 644.398438 719.449219 C 644.328125 719.433594 644.246094 719.378906 644.203125 719.320312 C 644.171875 719.351562 644.164062 719.355469 644.125 719.378906 C 644.085938 719.398438 644.042969 719.414062 644 719.40625 C 643.957031 719.402344 643.921875 719.378906 643.894531 719.347656 C 643.871094 719.316406 643.847656 719.265625 643.84375 719.222656 C 643.808594 719.277344 643.75 719.3125 643.6875 719.316406 C 643.644531 719.320312 643.597656 719.316406 643.554688 719.324219 C 643.496094 719.335938 643.433594 719.382812 643.410156 719.441406 C 643.355469 719.402344 643.285156 719.394531 643.222656 719.40625 C 643.117188 719.417969 643.019531 719.464844 642.917969 719.492188 C 642.800781 719.523438 642.636719 719.523438 642.546875 719.488281 C 642.511719 719.378906 642.511719 719.261719 642.539062 719.152344 C 642.5625 719.066406 642.605469 718.984375 642.625 718.902344 C 642.648438 718.816406 642.65625 718.710938 642.605469 718.636719 C 642.632812 718.613281 642.660156 718.589844 642.683594 718.5625 C 642.707031 718.535156 642.722656 718.503906 642.726562 718.46875 C 642.734375 718.429688 642.71875 718.390625 642.726562 718.347656 C 642.734375 718.289062 642.777344 718.246094 642.820312 718.203125 C 642.765625 718.191406 642.6875 718.167969 642.65625 718.117188 C 642.632812 718.074219 642.632812 718.023438 642.652344 717.976562 C 642.667969 717.933594 642.699219 717.894531 642.730469 717.855469 C 642.671875 717.792969 642.609375 717.722656 642.59375 717.640625 C 642.582031 717.601562 642.585938 717.558594 642.578125 717.515625 C 642.570312 717.476562 642.550781 717.433594 642.511719 717.414062 C 642.503906 717.410156 642.488281 717.40625 642.480469 717.398438 C 642.46875 717.394531 642.460938 717.382812 642.460938 717.371094 C 642.457031 717.25 642.519531 717.140625 642.535156 717.023438 C 642.539062 716.988281 642.542969 716.953125 642.550781 716.921875 C 642.570312 716.875 642.628906 716.832031 642.667969 716.792969 C 642.636719 716.757812 642.609375 716.71875 642.589844 716.671875 C 642.574219 716.628906 642.566406 716.578125 642.582031 716.535156 C 642.589844 716.515625 642.601562 716.496094 642.613281 716.480469 C 642.660156 716.425781 642.730469 716.398438 642.796875 716.371094 C 642.773438 716.332031 642.769531 716.285156 642.765625 716.238281 C 642.761719 716.191406 642.757812 716.144531 642.738281 716.101562 C 642.71875 716.0625 642.679688 716.023438 642.632812 716.019531 C 642.667969 715.972656 642.671875 715.894531 642.65625 715.835938 C 642.640625 715.78125 642.613281 715.726562 642.597656 715.667969 C 642.582031 715.609375 642.582031 715.542969 642.617188 715.492188 C 642.535156 715.449219 642.453125 715.402344 642.40625 715.324219 C 642.386719 715.292969 642.375 715.257812 642.382812 715.222656 C 642.386719 715.199219 642.402344 715.175781 642.417969 715.15625 C 642.445312 715.121094 642.472656 715.089844 642.507812 715.0625 C 642.53125 715.046875 642.554688 715.027344 642.574219 715.007812 C 642.589844 714.984375 642.601562 714.953125 642.59375 714.925781 C 642.585938 714.878906 642.589844 714.824219 642.601562 714.78125 C 642.617188 714.730469 642.65625 714.691406 642.667969 714.640625 C 642.6875 714.585938 642.671875 714.519531 642.632812 714.472656 C 642.660156 714.464844 642.691406 714.449219 642.710938 714.429688 C 642.726562 714.410156 642.734375 714.382812 642.742188 714.355469 C 642.761719 714.285156 642.769531 714.210938 642.773438 714.136719 C 642.773438 714.128906 642.773438 714.121094 642.769531 714.117188 C 642.769531 714.109375 642.742188 714.105469 642.738281 714.109375 C 642.65625 714.089844 642.589844 714.019531 642.574219 713.9375 C 642.5625 713.851562 642.597656 713.765625 642.667969 713.71875 C 642.609375 713.679688 642.566406 713.613281 642.542969 713.542969 C 642.523438 713.472656 642.515625 713.402344 642.503906 713.332031 C 642.492188 713.257812 642.476562 713.1875 642.441406 713.125 C 642.496094 713.082031 642.558594 713.039062 642.578125 712.972656 C 642.59375 712.925781 642.589844 712.871094 642.601562 712.824219 C 642.617188 712.753906 642.664062 712.695312 642.722656 712.65625 C 642.695312 712.621094 642.664062 712.570312 642.648438 712.527344 C 642.632812 712.480469 642.632812 712.425781 642.660156 712.386719 C 642.691406 712.332031 642.761719 712.308594 642.820312 712.292969 L 642.824219 712.292969 C 642.792969 712.269531 642.792969 712.273438 642.773438 712.242188 C 642.746094 712.207031 642.734375 712.160156 642.730469 712.117188 C 642.722656 712.074219 642.71875 712.027344 642.707031 711.984375 C 642.707031 711.953125 642.691406 711.917969 642.664062 711.902344 C 642.648438 711.890625 642.625 711.882812 642.617188 711.863281 C 642.613281 711.851562 642.617188 711.839844 642.621094 711.828125 C 642.628906 711.816406 642.640625 711.808594 642.652344 711.800781 C 642.648438 711.679688 642.597656 711.5625 642.566406 711.441406 C 642.527344 711.296875 642.515625 711.144531 642.53125 710.996094 C 642.625 710.960938 642.800781 710.96875 642.917969 711 C 643.019531 711.027344 643.117188 711.074219 643.222656 711.085938 C 643.285156 711.097656 643.355469 711.089844 643.410156 711.050781 C 643.433594 711.109375 643.496094 711.160156 643.558594 711.167969 C 643.601562 711.175781 643.644531 711.171875 643.6875 711.175781 C 643.75 711.179688 643.8125 711.214844 643.84375 711.269531 C 643.851562 711.226562 643.871094 711.175781 643.898438 711.144531 C 643.921875 711.113281 643.960938 711.089844 644 711.085938 C 644.042969 711.078125 644.089844 711.09375 644.125 711.113281 C 644.164062 711.136719 644.171875 711.140625 644.203125 711.171875 C 644.246094 711.113281 644.328125 711.058594 644.398438 711.042969 C 644.4375 711.035156 644.476562 711.03125 644.515625 711.023438 C 644.578125 711.003906 644.644531 710.953125 644.667969 710.894531 C 644.71875 710.925781 644.785156 710.914062 644.839844 710.933594 C 644.871094 710.941406 644.902344 710.960938 644.933594 710.964844 C 644.976562 710.976562 645.019531 710.96875 645.0625 710.976562 C 645.148438 710.996094 645.199219 711.085938 645.285156 711.117188 C 645.339844 711.078125 645.398438 711.050781 645.460938 711.03125 C 645.476562 711.027344 645.496094 711.023438 645.515625 711.027344 C 645.542969 711.03125 645.5625 711.050781 645.582031 711.070312 C 645.628906 711.121094 645.65625 711.171875 645.664062 711.242188 C 645.707031 711.222656 645.753906 711.21875 645.800781 711.210938 C 645.847656 711.207031 645.894531 711.203125 645.9375 711.183594 C 645.980469 711.164062 646.019531 711.125 646.03125 711.078125 C 646.078125 711.121094 646.148438 711.136719 646.210938 711.113281 C 646.246094 711.101562 646.28125 711.074219 646.316406 711.058594 C 646.390625 711.027344 646.472656 711.039062 646.550781 711.050781 C 646.59375 710.980469 646.652344 710.914062 646.722656 710.867188 C 646.742188 710.851562 646.761719 710.839844 646.785156 710.835938 C 646.8125 710.832031 646.839844 710.839844 646.867188 710.851562 C 646.953125 710.894531 647.023438 710.980469 647.046875 711.074219 L 647.046875 711.058594 C 647.113281 711.03125 647.191406 711.027344 647.261719 711.046875 C 647.3125 711.0625 647.359375 711.09375 647.410156 711.109375 C 647.460938 711.125 647.523438 711.125 647.5625 711.085938 C 647.578125 711.140625 647.628906 711.1875 647.683594 711.203125 C 647.757812 711.226562 647.847656 711.199219 647.917969 711.238281 C 647.945312 711.171875 647.988281 711.109375 648.035156 711.0625 C 648.050781 711.046875 648.070312 711.03125 648.09375 711.023438 C 648.121094 711.015625 648.148438 711.027344 648.175781 711.035156 C 648.242188 711.0625 648.269531 711.074219 648.324219 711.113281 C 648.371094 711.070312 648.417969 711.023438 648.480469 711.003906 C 648.53125 710.984375 648.59375 710.988281 648.644531 710.972656 C 648.683594 710.960938 648.71875 710.9375 648.757812 710.929688 C 648.78125 710.921875 648.808594 710.921875 648.835938 710.921875 C 648.863281 710.917969 648.890625 710.914062 648.910156 710.894531 C 648.941406 710.949219 648.992188 711.003906 649.050781 711.027344 C 649.121094 711.054688 649.207031 711.023438 649.273438 711.0625 C 649.296875 711.078125 649.316406 711.105469 649.335938 711.125 C 649.355469 711.148438 649.382812 711.167969 649.414062 711.164062 C 649.464844 711.128906 649.519531 711.09375 649.578125 711.074219 C 649.59375 711.066406 649.609375 711.0625 649.625 711.0625 C 649.648438 711.066406 649.664062 711.082031 649.675781 711.097656 C 649.714844 711.144531 649.742188 711.203125 649.757812 711.261719 C 649.789062 711.214844 649.851562 711.1875 649.90625 711.179688 C 649.964844 711.171875 650.019531 711.171875 650.074219 711.148438 C 650.117188 711.132812 650.15625 711.097656 650.183594 711.054688 C 650.238281 711.097656 650.320312 711.101562 650.390625 711.085938 C 650.457031 711.070312 650.519531 711.039062 650.585938 711.015625 C 650.730469 710.96875 650.914062 710.960938 651.0625 710.996094 C 651.078125 711.144531 651.066406 711.296875 651.027344 711.441406 C 650.996094 711.5625 650.945312 711.675781 650.941406 711.800781 C 650.953125 711.804688 650.964844 711.816406 650.972656 711.828125 C 650.980469 711.839844 650.980469 711.851562 650.976562 711.863281 C 650.96875 711.882812 650.945312 711.890625 650.929688 711.902344 C 650.902344 711.917969 650.886719 711.953125 650.886719 711.984375 C 650.875 712.027344 650.871094 712.074219 650.867188 712.117188 C 650.859375 712.160156 650.847656 712.207031 650.820312 712.242188 C 650.800781 712.273438 650.800781 712.269531 650.773438 712.292969 C 650.835938 712.304688 650.902344 712.332031 650.933594 712.386719 C 650.960938 712.425781 650.960938 712.480469 650.945312 712.527344 C 650.929688 712.570312 650.902344 712.621094 650.871094 712.65625 C 650.929688 712.691406 650.976562 712.753906 650.992188 712.824219 C 651.003906 712.871094 651 712.925781 651.015625 712.972656 C 651.035156 713.039062 651.097656 713.082031 651.15625 713.125 C 651.117188 713.1875 651.101562 713.257812 651.089844 713.332031 C 651.078125 713.402344 651.074219 713.472656 651.050781 713.542969 C 651.027344 713.613281 650.984375 713.679688 650.925781 713.71875 C 650.996094 713.765625 651.03125 713.855469 651.019531 713.9375 C 651.003906 714.019531 650.9375 714.089844 650.855469 714.109375 C 650.851562 714.105469 650.828125 714.109375 650.824219 714.117188 C 650.820312 714.121094 650.820312 714.128906 650.820312 714.136719 C 650.828125 714.210938 650.832031 714.285156 650.851562 714.355469 C 650.859375 714.382812 650.867188 714.410156 650.886719 714.429688 C 650.902344 714.449219 650.933594 714.464844 650.960938 714.472656 C 650.921875 714.519531 650.90625 714.585938 650.925781 714.640625 C 650.9375 714.691406 650.976562 714.730469 650.992188 714.78125 C 651.007812 714.824219 651.007812 714.878906 651.003906 714.925781 C 650.992188 714.953125 651.003906 714.984375 651.019531 715.003906 C 651.039062 715.027344 651.0625 715.042969 651.085938 715.0625 C 651.121094 715.089844 651.148438 715.121094 651.175781 715.15625 C 651.191406 715.175781 651.207031 715.199219 651.210938 715.222656 C 651.21875 715.257812 651.203125 715.292969 651.1875 715.324219 Z M 651.1875 715.324219 " fill-opacity="1" fill-rule="nonzero"/><path fill="#000000" d="M 642.296875 710.746094 L 651.296875 710.746094 L 651.296875 719.746094 L 642.296875 719.746094 Z M 642.296875 710.746094 " fill-opacity="1" fill-rule="nonzero"/></g><g clip-path="url(#5581d3b060)"><path fill="#000000" d="M 47.707031 172.539062 L 238.808594 124.773438 L 267.675781 133.648438 C 257.703125 153.941406 251.921875 176.726562 251.921875 200.855469 C 251.921875 234.710938 369.882812 487.734375 393.515625 538.140625 C 395.660156 542.625 400.144531 545.46875 405.082031 545.46875 C 410.015625 545.46875 414.503906 542.625 416.648438 538.140625 C 440.28125 487.734375 558.242188 234.710938 558.242188 200.855469 C 558.242188 176.726562 552.460938 153.992188 542.488281 133.648438 L 571.355469 124.773438 L 762.457031 172.539062 L 762.457031 733.328125 L 574.097656 686.265625 C 571.851562 685.664062 569.460938 685.714844 567.265625 686.414062 L 405.082031 736.320312 L 242.898438 686.414062 C 240.703125 685.714844 238.308594 685.664062 236.066406 686.265625 L 47.707031 733.328125 Z M 405.082031 73.222656 C 475.480469 73.222656 532.714844 130.457031 532.714844 200.855469 C 532.367188 219.902344 468.648438 365.933594 405.082031 502.539062 C 341.464844 365.933594 277.796875 219.851562 277.449219 200.855469 C 277.449219 130.457031 334.683594 73.222656 405.082031 73.222656 Z M 38.035156 762.046875 L 238.808594 711.890625 L 401.34375 761.898438 C 403.785156 762.644531 406.378906 762.644531 408.820312 761.898438 L 571.355469 711.890625 L 772.128906 762.046875 C 773.175781 762.296875 774.171875 762.445312 775.21875 762.445312 C 778.011719 762.445312 780.804688 761.5 783.046875 759.753906 C 786.1875 757.308594 787.984375 753.621094 787.984375 749.683594 L 787.984375 162.566406 C 787.984375 156.683594 783.996094 151.597656 778.3125 150.203125 L 574.097656 99.148438 C 571.851562 98.550781 569.460938 98.597656 567.265625 99.296875 L 528.925781 111.113281 C 501.054688 72.773438 455.984375 47.695312 405.082031 47.695312 C 354.175781 47.695312 309.105469 72.773438 281.238281 111.113281 L 242.898438 99.296875 C 240.703125 98.597656 238.308594 98.550781 236.066406 99.148438 L 31.851562 150.203125 C 26.167969 151.597656 22.179688 156.683594 22.179688 162.566406 L 22.179688 749.683594 C 22.179688 753.621094 23.972656 757.308594 27.117188 759.753906 C 30.207031 762.144531 34.195312 762.992188 38.035156 762.046875 " fill-opacity="1" fill-rule="nonzero"/></g><path fill="#000000" d="M 405.082031 137.039062 C 440.28125 137.039062 468.898438 165.65625 468.898438 200.855469 C 468.898438 236.054688 440.28125 264.671875 405.082031 264.671875 C 369.882812 264.671875 341.265625 236.054688 341.265625 200.855469 C 341.265625 165.65625 369.882812 137.039062 405.082031 137.039062 Z M 405.082031 290.199219 C 454.339844 290.199219 494.425781 250.113281 494.425781 200.855469 C 494.425781 151.597656 454.339844 111.511719 405.082031 111.511719 C 355.824219 111.511719 315.738281 151.597656 315.738281 200.855469 C 315.738281 250.113281 355.824219 290.199219 405.082031 290.199219 " fill-opacity="1" fill-rule="nonzero"/><path fill="#000000" d="M 405.082031 596.519531 C 452.59375 596.519531 481.660156 613.023438 481.660156 622.046875 C 481.660156 631.074219 452.59375 647.574219 405.082031 647.574219 C 357.566406 647.574219 328.5 631.074219 328.5 622.046875 C 328.5 613.023438 357.566406 596.519531 405.082031 596.519531 Z M 405.082031 673.101562 C 455.835938 673.101562 507.1875 655.550781 507.1875 622.046875 C 507.1875 588.542969 455.835938 570.996094 405.082031 570.996094 C 354.328125 570.996094 302.972656 588.542969 302.972656 622.046875 C 302.972656 655.550781 354.328125 673.101562 405.082031 673.101562 " fill-opacity="1" fill-rule="nonzero"/><path fill="#000000" d="M 251.921875 647.574219 L 251.921875 264.671875 C 251.921875 257.644531 246.1875 251.910156 239.15625 251.910156 C 232.128906 251.910156 226.394531 257.644531 226.394531 264.671875 L 226.394531 647.574219 C 226.394531 654.605469 232.128906 660.339844 239.15625 660.339844 C 246.1875 660.339844 251.921875 654.605469 251.921875 647.574219 " fill-opacity="1" fill-rule="nonzero"/><path fill="#000000" d="M 571.003906 660.339844 C 578.035156 660.339844 583.769531 654.605469 583.769531 647.574219 L 583.769531 264.671875 C 583.769531 257.644531 578.035156 251.910156 571.003906 251.910156 C 563.976562 251.910156 558.242188 257.644531 558.242188 264.671875 L 558.242188 647.574219 C 558.242188 654.605469 563.976562 660.339844 571.003906 660.339844 " fill-opacity="1" fill-rule="nonzero"/></svg>